<svg width="1080" height="1080" viewBox="0 0 1080 1080" fill="none" xmlns="http://www.w3.org/2000/svg">
<path d="M520.113 0.255127C439.299 4.69128 369.506 22.8944 295.886 58.9949C212.93 99.6844 143.749 160.719 90.1793 240.262C15.4881 351.011 -13.7455 482.105 5.99868 618.093C19.6206 712.475 56.2009 797.525 116.964 875.845C141.606 907.662 186.451 950.34 224.256 978.027C255.786 1001.13 307.671 1029.27 347.619 1044.72C386.495 1059.87 433.636 1071.49 478.788 1077.3C507.409 1080.82 579.957 1080.97 608.12 1077.3C705.004 1065.07 792.246 1028.97 869.08 969.308C900.609 944.986 938.567 906.897 963.209 875.08C1034.38 783.299 1072.18 683.258 1079.07 568.073C1081.83 521.418 1078.46 475.986 1068.82 429.025C1042.64 301.755 963.056 181.063 853.621 102.285C776.481 46.9104 691.382 13.8694 599.702 3.31458C579.498 1.02002 536.949 -0.662598 520.113 0.255127ZM562.203 62.0543C635.517 66.7963 702.861 85.9173 764.236 119.723C786.736 132.114 824.693 157.659 843.06 173.109C908.262 227.413 961.831 302.214 990.147 378.239C1025.04 472.315 1027.95 570.979 999.024 673.927C958.617 816.646 845.509 939.479 706.381 991.183C655.567 1010.15 611.793 1018.1 552.254 1019.18C506.338 1020.09 480.777 1017.65 440.065 1008.77C419.096 1004.34 373.332 990.112 363.996 985.217L359.404 982.769V803.185V623.447H298.182H236.96V558.742V494.189L534.347 494.495C697.81 494.648 832.499 494.801 833.571 494.954C834.948 494.954 835.407 508.874 835.407 559.201V623.447H656.332H477.257L477.563 792.783L478.022 962.272L496.389 964.26C523.48 967.167 582.559 965.79 607.661 961.66C696.586 947.281 772.195 908.274 836.938 843.721C912.547 768.308 955.556 674.386 964.127 566.084C969.943 490.977 951.271 407.609 913.466 340.303C894.64 306.803 862.498 264.737 836.785 240.262C757.043 163.931 665.362 122.936 557.764 115.44C544.142 114.522 532.969 113.605 532.969 113.452C532.204 112.84 531.439 61.9013 532.051 61.2895C533.122 60.2187 535.265 60.3716 562.203 62.0543ZM518.276 154.294C550.418 154.906 563.121 155.671 578.121 158.271C665.362 173.262 735.309 209.516 797.143 271.468C825.153 299.461 844.897 325.159 862.804 356.365C870.916 370.744 884.385 401.032 884.385 405.315C884.385 407.456 880.253 407.762 844.285 407.762H804.031L796.531 394.454C774.185 355.141 736.074 314.452 696.892 288.141C639.037 249.134 570.927 231.39 496.848 235.673L477.257 236.744V334.949V433.002H418.331H359.404L359.71 264.125L360.169 95.4014L367.822 92.4949C389.25 84.0817 453.533 68.0201 471.9 66.3374L476.492 65.8785L476.951 109.627L477.257 153.529L518.276 154.294ZM304.304 155.212V187.029L288.693 198.655C174.666 282.328 109.158 416.634 115.127 553.847C121.097 687.847 184.155 807.009 291.601 887.164L305.529 897.566L305.376 926.324C305.223 942.233 304.61 955.541 303.998 956.153C302.927 957.377 270.02 936.879 255.479 925.712C211.705 892.671 170.534 849.075 140.994 804.714C102.118 746.128 77.1696 679.281 65.3843 602.032C60.9457 572.662 60.4865 509.639 64.619 478.892C71.9657 422.6 84.9754 379.616 109.923 328.984C142.983 261.525 193.645 200.796 254.714 155.365C271.703 142.669 300.784 123.395 303.233 123.242C303.845 123.242 304.304 137.621 304.304 155.212ZM734.391 701.002C734.391 703.603 707.453 730.984 694.137 742.151C651.588 777.792 594.345 802.726 542.765 807.927L532.357 808.998L532.051 764.025C531.898 739.244 531.592 715.534 531.592 711.404C531.439 707.121 531.745 702.838 532.051 701.767C532.51 700.39 554.244 699.931 633.527 699.931C688.933 699.931 734.391 700.39 734.391 701.002Z" fill="#7F5AF0"/>
</svg>
