<svg width="64" height="64" viewBox="0 0 64 64" fill="none" xmlns="http://www.w3.org/2000/svg">
<g clip-path="url(#clip0_250_2114)">
<path d="M24.8024 15.3569H39.1984V18.1378H24.9066V15.3569H24.8024ZM27.4101 2.89432H28.7661V8.45607C28.7661 10.238 31.3745 10.238 31.3745 8.45607V2.89432H36.5904V12.5724H27.5147V2.89432H27.4101ZM39.0941 37.3878L33.3566 47.7355V37.0548C36.5903 35.4961 35.4429 30.154 31.9999 30.154C28.349 30.154 27.4101 35.7192 30.7485 37.1646V48.072L25.0113 37.4976L28.5579 21.032H35.6515L39.0941 37.3878ZM31.8959 34.6069C30.9571 34.6069 30.9571 32.9348 31.8959 32.9348C32.8348 32.9348 32.8348 34.6069 31.8959 34.6069ZM22.194 19.5831C22.194 20.3624 22.8203 21.032 23.5506 21.032H25.8452L22.2986 37.3878C22.194 37.7208 22.2986 38.0538 22.4028 38.3903L30.7485 53.7436C31.2699 54.6363 32.522 54.6363 33.0437 53.7436L41.7022 38.3903C41.9105 38.0538 41.9104 37.7208 41.8065 37.3878L38.2595 21.1418H40.5544C41.2848 21.1418 41.9105 20.4723 41.9105 19.6965V14.1311C41.9105 13.3518 41.2848 12.6858 40.5544 12.6858H39.1984V1.44542C39.1984 0.666069 38.5724 8.01086e-05 37.8421 8.01086e-05H26.1584C25.4277 8.01086e-05 24.8024 0.666069 24.8024 1.44542V12.5724H23.4463C22.7157 12.5724 22.0903 13.242 22.0903 14.0213V19.5831H22.194Z" fill="#7F5AF0"/>
<path d="M57.4542 58.5294C59.1231 58.5294 59.1231 61.3103 57.4542 61.3103C55.7847 61.3103 55.7847 58.5294 57.4542 58.5294ZM6.54576 61.3103C4.87656 61.3103 4.87656 58.5294 6.54576 58.5294C8.21495 58.5294 8.21495 61.3103 6.54576 61.3103ZM5.92006 24.2591L8.73637 27.2632L5.92006 30.2672L3.10342 27.2632L5.92006 24.2591ZM58.0799 24.2591L60.8966 27.2632L58.0799 30.2672L55.2636 27.2632L58.0799 24.2591ZM63.6089 28.1524C64.1304 27.5962 64.1304 26.707 63.6089 26.1508L59.0185 21.2515C58.4974 20.6953 57.6625 20.6953 57.1411 21.2515L52.5509 26.1508C52.0292 26.707 52.0292 27.5962 52.5509 28.1524L56.3065 32.1589L34.7122 58.5294H29.3918L7.69321 32.1589L11.4491 28.1524C11.9701 27.5962 11.9701 26.707 11.4491 26.1508L6.85861 21.2515C6.3372 20.6953 5.5026 20.6953 4.98118 21.2515L0.391062 26.1508C-0.130354 26.707 -0.130354 27.5962 0.391062 28.1524L25.8448 58.4196H10.197C8.73638 54.08 2.58167 55.3022 2.58167 59.8649C2.58167 64.4277 8.73638 65.54 10.197 61.3103H53.6984C55.159 65.6499 61.314 64.4277 61.314 59.8649C61.314 55.3022 55.159 54.1898 53.6984 58.4196H38.0506L63.6089 28.1524Z" fill="#7F5AF0"/>
<path d="M41.8062 5.67518H44.4139V8.45605H41.8062V5.67518Z" fill="#7F5AF0"/>
<path d="M45.666 5.67518H48.2741V8.45605H45.666V5.67518Z" fill="#7F5AF0"/>
<path d="M49.6299 5.67518H52.238V8.45605H49.6299V5.67518Z" fill="#7F5AF0"/>
<path d="M11.7621 5.67518H14.3702V8.45605H11.7621V5.67518Z" fill="#7F5AF0"/>
<path d="M15.7262 5.67518H18.3343V8.45605H15.7262V5.67518Z" fill="#7F5AF0"/>
<path d="M19.5854 5.67518H22.1932V8.45605H19.5854V5.67518Z" fill="#7F5AF0"/>
</g>
<defs>
<clipPath id="clip0_250_2114">
<rect width="64" height="64" fill="white" transform="matrix(1 0 0 -1 0 64)"/>
</clipPath>
</defs>
</svg>
