<svg width="1804" height="1804" viewBox="0 0 1804 1804" fill="none" xmlns="http://www.w3.org/2000/svg">
<mask id="mask0_148_1473" style="mask-type:luminance" maskUnits="userSpaceOnUse" x="240" y="241" width="1323" height="1318">
<path d="M1247.93 1482.09C969.686 1643.74 630.31 1525.64 444.565 1339.98C201.212 1096.72 181.08 697.001 352.926 460.042C424.377 361.514 573.556 225.017 732.828 243.417C867.818 259.011 885.829 371.242 1110.59 547.088C1365.43 746.466 1475.57 706.468 1535.05 832.257C1623.67 1019.71 1489.4 1341.81 1247.93 1482.09Z" fill="white"/>
</mask>
<g mask="url(#mask0_148_1473)">
<path d="M1575.35 913.242L1110.98 1209.05C1098.11 1217.25 1094.31 1234.41 1102.51 1247.28L1254.53 1485.91C1262.73 1498.79 1279.87 1502.59 1292.75 1494.39L1575.35 1314.37V913.242ZM1277.92 1501.89C1267.72 1501.89 1257.73 1496.84 1251.85 1487.61L1099.83 1248.98C1090.7 1234.63 1094.93 1215.52 1109.28 1206.38L1576.08 909.014C1576.57 908.704 1577.19 908.682 1577.7 908.963C1578.2 909.238 1578.52 909.772 1578.52 910.349V1315.24C1578.52 1315.78 1578.24 1316.29 1577.79 1316.57L1294.46 1497.06C1289.33 1500.33 1283.6 1501.89 1277.92 1501.89Z" fill="#FFFFFE"/>
<path d="M1130.88 1253.04C1130.36 1253.04 1129.85 1252.78 1129.54 1252.31C1129.07 1251.57 1129.28 1250.59 1130.03 1250.11C1153.58 1235.08 1177.17 1219.97 1200.77 1204.84C1257 1168.81 1315.13 1131.56 1372.61 1095.59C1373.35 1095.12 1374.32 1095.35 1374.79 1096.09C1375.25 1096.83 1375.03 1097.81 1374.29 1098.28C1316.83 1134.23 1258.7 1171.48 1202.48 1207.51C1178.87 1222.64 1155.29 1237.75 1131.73 1252.79C1131.46 1252.96 1131.17 1253.04 1130.88 1253.04Z" fill="#FFFFFE"/>
<path d="M1141.53 1214.41C1143.76 1217.9 1142.73 1222.54 1139.24 1224.77C1135.74 1226.99 1131.11 1225.97 1128.88 1222.47C1126.65 1218.98 1127.68 1214.34 1131.17 1212.11C1134.67 1209.88 1139.31 1210.91 1141.53 1214.41Z" fill="#7F5AF0"/>
<path d="M1166.86 1198.27C1169.09 1201.77 1168.05 1206.41 1164.56 1208.64C1161.06 1210.87 1156.42 1209.83 1154.2 1206.34C1151.97 1202.84 1153 1198.2 1156.49 1195.98C1159.99 1193.75 1164.63 1194.78 1166.86 1198.27Z" fill="#7F5AF0"/>
<path d="M1192.18 1182.15C1194.41 1185.64 1193.38 1190.28 1189.88 1192.51C1186.38 1194.74 1181.74 1193.71 1179.52 1190.21C1177.29 1186.71 1178.32 1182.07 1181.82 1179.85C1185.32 1177.62 1189.96 1178.65 1192.18 1182.15Z" fill="#7F5AF0"/>
<path d="M1277.64 1129.29C1277.09 1129.29 1276.56 1129.01 1276.26 1128.5C1275.82 1127.75 1276.08 1126.78 1276.84 1126.34C1294.9 1115.82 1312.21 1104.37 1328.96 1093.3C1343.23 1083.87 1357.99 1074.11 1372.98 1065.1C1373.72 1064.64 1374.7 1064.89 1375.15 1065.64C1375.6 1066.39 1375.36 1067.36 1374.61 1067.81C1359.67 1076.79 1344.95 1086.53 1330.7 1095.95C1313.92 1107.04 1296.58 1118.52 1278.44 1129.08C1278.18 1129.22 1277.91 1129.29 1277.64 1129.29Z" fill="#FFFFFE"/>
<path d="M1207.37 1174.05C1206.85 1174.05 1206.33 1173.8 1206.03 1173.32C1205.56 1172.58 1205.78 1171.6 1206.52 1171.13L1237.96 1151.1C1238.69 1150.63 1239.67 1150.85 1240.15 1151.59C1240.62 1152.33 1240.4 1153.3 1239.66 1153.78L1208.23 1173.81C1207.96 1173.97 1207.66 1174.05 1207.37 1174.05Z" fill="#FFFFFE"/>
<path d="M1174.74 1278.21L1276.42 1437.83L1436.03 1336.15L1334.36 1176.53L1174.74 1278.21ZM1275.94 1441.6C1275.82 1441.6 1275.71 1441.59 1275.59 1441.56C1275.18 1441.48 1274.83 1441.22 1274.6 1440.87L1171.22 1278.58C1170.75 1277.85 1170.97 1276.86 1171.7 1276.39L1333.99 1173.01C1334.35 1172.79 1334.77 1172.71 1335.19 1172.8C1335.59 1172.89 1335.96 1173.14 1336.18 1173.49L1439.56 1335.78C1440.03 1336.52 1439.82 1337.5 1439.08 1337.97L1276.79 1441.35C1276.53 1441.52 1276.24 1441.6 1275.94 1441.6Z" fill="#FFFFFE"/>
<path d="M1422.71 1168.2L1387.27 1190.78L1364.69 1155.33L1400.13 1132.76L1422.71 1168.2Z" fill="#2CB67D"/>
<path d="M1576.93 1020.13L1424.38 1117.31L1446.96 1152.75L1576.93 1069.95V1020.13Z" fill="#7F5AF0"/>
<path d="M1463.11 1231.62L1427.67 1254.2L1405.09 1218.76L1440.54 1196.18L1463.11 1231.62Z" fill="#2CB67D"/>
<path d="M1576.93 1109.29L1464.78 1180.73L1487.36 1216.18L1576.93 1159.11V1109.29Z" fill="#7F5AF0"/>
<path d="M1503.51 1295.05L1468.07 1317.62L1445.49 1282.18L1480.93 1259.6L1503.51 1295.05Z" fill="#2CB67D"/>
</g>
<path d="M535.854 1482.38C516.819 1487.59 497.164 1476.38 491.952 1457.35C486.741 1438.31 497.946 1418.66 516.98 1413.45C536.014 1408.24 555.669 1419.44 560.881 1438.47C566.093 1457.51 554.887 1477.17 535.854 1482.38ZM597.507 1435.64L593.842 1422.25L578.696 1422.94C577.293 1419.99 575.668 1417.2 573.83 1414.58L581.848 1401.74L571.98 1391.98L559.205 1400.15C556.545 1398.32 553.738 1396.72 550.813 1395.37L551.336 1380.21L537.909 1376.69L530.941 1390.13C527.755 1389.89 524.522 1389.91 521.27 1390.21L514.147 1376.82L500.759 1380.49L501.447 1395.63C498.499 1397.03 495.705 1398.66 493.09 1400.5L480.245 1392.48L470.484 1402.35L478.655 1415.12C476.83 1417.79 475.23 1420.59 473.87 1423.51L458.715 1422.99L455.196 1436.42L468.639 1443.39C468.39 1446.57 468.415 1449.81 468.709 1453.06L455.326 1460.18L458.992 1473.57L474.137 1472.88C475.541 1475.83 477.166 1478.62 479.004 1481.24L470.985 1494.08L480.854 1503.84L493.629 1495.67C496.288 1497.5 499.095 1499.1 502.02 1500.46L501.498 1515.61L514.924 1519.13L521.893 1505.69C525.079 1505.94 528.311 1505.91 531.563 1505.62L538.687 1519L552.074 1515.34L551.386 1500.19C554.335 1498.78 557.129 1497.16 559.743 1495.32L572.588 1503.35L582.349 1493.47L574.179 1480.7C576.003 1478.04 577.603 1475.23 578.963 1472.31L594.118 1472.83L597.637 1459.41L584.194 1452.44C584.443 1449.25 584.418 1446.01 584.124 1442.77L597.507 1435.64Z" fill="#2CB67D"/>
<path d="M713.972 1376.94C681.401 1385.85 647.767 1366.68 638.848 1334.11C629.93 1301.54 649.104 1267.9 681.675 1258.98C714.246 1250.07 747.881 1269.24 756.8 1301.81C765.718 1334.38 746.546 1368.02 713.972 1376.94ZM819.47 1296.97L813.2 1274.06L787.287 1275.23C784.884 1270.19 782.099 1265.4 778.953 1260.93L792.677 1238.95L775.792 1222.25L753.928 1236.23C749.381 1233.11 744.576 1230.37 739.568 1228.05L740.463 1202.11L717.489 1196.09L705.565 1219.09C700.114 1218.67 694.582 1218.71 689.017 1219.22L676.828 1196.31L653.919 1202.58L655.095 1228.5C650.052 1230.9 645.269 1233.68 640.796 1236.83L618.816 1223.1L602.112 1240L616.093 1261.85C612.972 1266.41 610.233 1271.21 607.907 1276.21L581.974 1275.32L575.952 1298.3L598.956 1310.22C598.528 1315.67 598.571 1321.2 599.075 1326.77L576.174 1338.96L582.447 1361.87L608.363 1360.69C610.764 1365.74 613.546 1370.51 616.691 1374.99L602.97 1396.97L619.856 1413.67L641.717 1399.69C646.268 1402.81 651.071 1405.55 656.076 1407.88L655.182 1433.81L678.158 1439.83L690.082 1416.83C695.533 1417.26 701.065 1417.22 706.63 1416.71L718.819 1439.61L741.725 1433.34L740.549 1407.42C745.593 1405.02 750.377 1402.24 754.851 1399.1L776.831 1412.81L793.536 1395.93L779.552 1374.07C782.676 1369.52 785.411 1364.71 787.742 1359.71L813.676 1360.61L819.694 1337.62L796.69 1325.7C797.115 1320.25 797.072 1314.72 796.574 1309.16L819.47 1296.97Z" fill="#2CB67D"/>
<path d="M254.676 806.366L518.522 1317.82C511.706 1265.27 574.834 1182.44 693.121 1090.65C707.637 1079.38 712.037 1059.32 703.582 1042.92L468.891 587.981C463.608 577.742 454.113 570.482 442.841 568.065C431.628 565.669 420.062 568.383 411.111 575.512C288.836 672.921 230.355 759.217 254.676 806.366ZM525.186 1335.78C524.612 1335.78 524.058 1335.46 523.777 1334.92L251.86 807.817C239.199 783.275 247.648 748.256 276.294 706.555C303.783 666.535 349.719 620.367 409.137 573.03C418.832 565.309 431.356 562.365 443.505 564.969C455.709 567.582 465.988 575.44 471.708 586.531L706.398 1041.47C715.553 1059.21 710.786 1080.95 695.065 1093.15C632.069 1142.04 583.163 1189.85 553.632 1231.43C523.461 1273.91 514.101 1309.18 526.565 1333.42L526.592 1333.47C526.994 1334.25 526.689 1335.21 525.911 1335.6C525.679 1335.72 525.431 1335.78 525.186 1335.78Z" fill="#FFFFFE"/>
<path d="M250.413 835.808L514.259 1347.26C507.444 1294.72 570.57 1211.88 688.858 1120.09C703.375 1108.83 707.774 1088.76 699.319 1072.36L464.628 617.423C459.345 607.183 449.851 599.924 438.579 597.514C427.365 595.111 415.8 597.817 406.848 604.954C284.573 702.362 226.093 788.659 250.413 835.808ZM520.923 1365.22C520.349 1365.22 519.795 1364.91 519.513 1364.37L247.596 837.258C234.935 812.717 243.384 777.697 272.031 735.996C299.519 695.976 345.455 649.808 404.873 602.471C414.569 594.75 427.096 591.813 439.242 594.411C451.446 597.023 461.725 604.881 467.445 615.972L702.135 1070.91C711.29 1088.66 706.524 1110.39 690.8 1122.59C627.806 1171.48 578.9 1219.29 549.368 1260.87C519.175 1303.39 509.825 1338.67 522.33 1362.92C522.732 1363.69 522.426 1364.65 521.648 1365.04C521.416 1365.17 521.168 1365.22 520.923 1365.22Z" fill="#FFFFFE"/>
<path d="M874.774 362.113L1109.86 817.818C1118.73 835.006 1139.09 842.886 1157.21 836.147C1340.69 767.898 1481.51 753.725 1528.25 796.978L1264.39 285.486C1235.02 228.545 1090.3 237.608 895.723 308.57C885.382 312.344 877.148 320.39 873.144 330.644C869.146 340.876 869.738 352.35 874.774 362.113ZM1143.9 841.717C1128.78 841.717 1114.33 833.397 1107.04 819.268L871.96 363.571C866.505 352.999 865.863 340.573 870.192 329.49C874.529 318.391 883.441 309.682 894.633 305.597C989.177 271.119 1073.99 250.547 1139.9 246.102C1208 241.512 1252.04 254.631 1267.21 284.029L1539.12 811.136C1539.53 811.915 1539.22 812.875 1538.44 813.272C1537.67 813.676 1536.71 813.366 1536.31 812.594C1521.52 783.917 1477.42 771.477 1408.82 776.6C1341.34 781.644 1254.71 803.256 1158.31 839.112C1153.59 840.873 1148.71 841.717 1143.9 841.717Z" fill="#FFFFFE"/>
<path d="M870.516 391.555L1105.59 847.26C1114.46 864.448 1134.82 872.328 1152.94 865.588C1336.42 797.339 1477.25 783.167 1523.99 826.42L1260.13 314.928C1230.75 257.987 1086.04 267.05 891.457 338.012C881.116 341.786 872.883 349.832 868.878 360.086C864.88 370.325 865.479 381.791 870.516 391.555ZM1139.64 871.159C1124.52 871.159 1110.07 862.839 1102.78 848.71L867.695 393.012C862.239 382.434 861.597 370.015 865.927 358.931C870.264 347.833 879.175 339.123 890.375 335.039C984.911 300.561 1069.72 279.988 1135.64 275.543C1203.77 270.954 1247.78 284.072 1262.94 313.47L1534.86 840.578C1535.26 841.357 1534.96 842.317 1534.18 842.714C1533.4 843.118 1532.45 842.807 1532.04 842.035C1517.25 813.359 1473.17 800.911 1404.57 806.042C1337.07 811.086 1250.45 832.698 1154.05 868.554C1149.32 870.315 1144.44 871.159 1139.64 871.159Z" fill="#FFFFFE"/>
<path d="M731.696 772.523C732.136 772.523 732.562 772.711 732.872 773.05C733.298 773.519 733.399 774.198 733.132 774.775C725.476 791.357 689.615 878.223 735.268 959.728C781.118 1041.57 883.961 1064.88 960.111 1051.91C1024.49 1040.93 1089.82 997.958 1126.55 942.431C1147.16 911.265 1155.41 881.045 1149.78 857.34C1147.1 846.062 1134.56 828.917 1111.78 797.779C1089.44 767.234 1065.52 737.62 1040.69 709.759C1040.29 709.304 1040.17 708.662 1040.4 708.099C1040.64 707.536 1041.17 707.161 1041.77 707.125C1072.52 705.249 1131.93 694.894 1184.31 646.64C1188.72 642.578 1193.06 638.248 1197.22 633.738C1166.73 622.308 1152.26 591.77 1145.44 567.236C1140.19 568.939 1134.93 570.439 1129.76 571.688C1106.93 577.222 1094.67 576.097 1067.8 573.629C1049.71 571.969 1024.93 569.696 985.562 568.325C863.114 564.053 824.01 576.328 796.972 588.162C780.894 595.205 768.411 602.594 745.738 616.008C714.596 634.445 692.759 650.212 676.814 661.729C653.111 678.838 641.214 687.432 628.704 683.384C623.723 681.768 619.309 678.261 615.564 672.95C585.648 694.627 551.96 690.29 533.163 685.152C533.221 688.854 533.408 692.52 533.72 696.07C534.876 709.196 536.811 731.161 550.45 749.872C579.901 790.275 652.535 799.41 731.183 772.61C731.349 772.552 731.523 772.523 731.696 772.523ZM919.348 1058.42C891.826 1058.42 863.806 1054.12 838.594 1045.76C791.394 1030.13 754.708 1000.92 732.504 961.28C688.588 882.871 718.822 799.713 728.773 776.759C650.117 802.585 577.729 792.671 547.889 751.741C533.731 732.316 531.748 709.802 530.563 696.344C530.185 692.036 529.986 687.562 529.975 683.052C529.973 682.554 530.208 682.078 530.607 681.782C531.008 681.479 531.525 681.385 532.004 681.53C550.015 686.797 584.744 692.231 614.999 669.428C615.349 669.161 615.797 669.06 616.23 669.133C616.663 669.212 617.044 669.465 617.283 669.833C620.816 675.302 624.987 678.845 629.68 680.368C640.663 683.918 652.124 675.641 674.958 659.153C690.953 647.607 712.858 631.79 744.129 613.281C766.903 599.801 779.444 592.376 795.702 585.261C823.058 573.282 862.551 560.864 985.67 565.157C1025.13 566.528 1049.96 568.809 1068.09 570.475C1095.39 572.979 1106.69 574.019 1129.02 568.607C1134.62 567.25 1140.34 565.597 1146.03 563.707C1146.44 563.57 1146.9 563.606 1147.29 563.815C1147.67 564.017 1147.95 564.378 1148.06 564.804C1154.65 589.439 1169.09 621.024 1200.5 631.537C1201.02 631.71 1201.4 632.122 1201.54 632.641C1201.67 633.161 1201.54 633.709 1201.18 634.106C1196.46 639.316 1191.51 644.324 1186.46 648.971C1135.14 696.25 1077.17 707.637 1045.2 710.062C1069.33 737.295 1092.58 766.166 1114.34 795.91C1139.09 829.746 1150.15 845.189 1152.86 856.604C1158.7 881.175 1150.3 912.276 1129.19 944.178C1092.01 1000.4 1025.85 1043.91 960.638 1055.03C947.303 1057.3 933.39 1058.42 919.348 1058.42Z" fill="#FFFFFE"/>
<path d="M1148.45 566.232C1155.14 590.392 1169.39 620.576 1199.53 631.205C1232.38 594.577 1246.61 555.069 1252.77 528.291C1252.89 527.786 1253.24 527.374 1253.72 527.179C1268.02 521.291 1292.89 494.036 1297.73 488.632C1298.18 488.134 1298.43 487.484 1298.43 486.806C1298.43 485.788 1297.89 484.894 1297 484.403C1296.1 483.912 1295.06 483.948 1294.2 484.497L1283.92 491.063C1283.31 491.453 1282.51 491.381 1281.98 490.883C1281.45 490.385 1281.33 489.591 1281.68 488.964L1297.41 460.662C1297.92 459.732 1297.96 458.606 1297.5 457.646C1297 456.607 1296.07 455.929 1294.92 455.784C1293.76 455.647 1292.7 456.08 1291.97 456.975L1271.08 482.592C1270.58 483.198 1269.71 483.357 1269.04 482.96C1268.36 482.563 1268.08 481.733 1268.37 481.004L1282.76 444.852C1283.66 442.586 1282.8 440.01 1280.73 438.733C1279.48 437.968 1277.97 437.788 1276.58 438.228C1275.18 438.675 1274.06 439.707 1273.49 441.056L1259.74 473.68C1259.43 474.423 1258.62 474.813 1257.84 474.589C1257.07 474.366 1256.59 473.601 1256.72 472.807L1261.47 444.361C1261.68 443.128 1261.32 441.829 1260.51 440.876C1259.76 440.003 1258.69 439.527 1257.66 439.541C1256.93 439.548 1254.99 439.563 1254.19 443.69C1252.26 453.656 1242.47 492.319 1242.05 493.957C1241.94 494.39 1241.66 494.758 1241.26 494.967C1240.86 495.177 1240.4 495.213 1239.98 495.061C1239.78 494.989 1235.04 493.221 1229.12 485.197C1226.3 481.387 1224.75 481.192 1224.38 481.214C1224.09 481.228 1223.91 481.394 1223.81 481.488C1220.67 492.723 1229.27 505.315 1234.71 511.853C1235.25 512.509 1235.18 513.469 1234.56 514.039C1207.94 538.27 1178.98 555.82 1148.45 566.232ZM1200.01 634.626C1199.83 634.626 1199.67 634.597 1199.5 634.546C1166.75 623.578 1151.78 591.012 1145 565.619C1144.78 564.811 1145.24 563.974 1146.03 563.707C1176.23 553.641 1204.91 536.488 1231.31 512.704C1224.42 504.11 1217.43 491.886 1220.85 480.355C1220.88 480.247 1220.92 480.146 1220.97 480.045C1221.07 479.857 1222.04 478.197 1224.16 478.053C1226.5 477.887 1228.94 479.619 1231.67 483.321C1234.98 487.795 1237.81 490.096 1239.48 491.2C1241.55 482.981 1249.41 451.693 1251.08 443.091C1252.21 437.283 1255.67 436.388 1257.63 436.373C1257.66 436.373 1257.68 436.373 1257.69 436.373C1259.68 436.373 1261.59 437.261 1262.92 438.812C1264.35 440.494 1264.97 442.709 1264.6 444.881L1262.08 459.977L1270.57 439.823C1271.5 437.622 1273.34 435.94 1275.61 435.212C1277.89 434.483 1280.36 434.786 1282.39 436.034C1285.78 438.127 1287.18 442.327 1285.7 446.021L1275.13 472.619L1289.51 454.976C1290.92 453.244 1293.09 452.371 1295.3 452.638C1297.52 452.912 1299.41 454.276 1300.37 456.29C1301.25 458.173 1301.19 460.381 1300.17 462.199L1287.49 485.024L1292.49 481.827C1294.34 480.643 1296.6 480.571 1298.52 481.625C1300.45 482.678 1301.59 484.612 1301.59 486.806C1301.59 488.264 1301.06 489.664 1300.09 490.746C1293.3 498.33 1270.31 523.24 1255.68 529.785C1249.29 557.104 1234.66 597.11 1201.18 634.106C1200.87 634.445 1200.45 634.626 1200.01 634.626Z" fill="#FFFFFE"/>
<path d="M533.145 681.855C551.212 686.942 584.49 691.632 613.834 670.287C604.207 654.239 599.039 623.795 598.47 579.741C598.466 579.445 598.547 579.149 598.704 578.897C604.886 568.809 603.419 542.795 595.951 530.066C589.282 518.701 568.067 488.372 563.107 481.3C553.988 491.489 570.889 517.922 571.068 518.203C571.297 518.557 571.374 518.982 571.285 519.394C571.196 519.812 570.946 520.166 570.592 520.397C563.189 525.137 558.985 530.412 558.097 536.07C557.048 542.752 561.039 547.68 561.079 547.731C561.472 548.207 561.553 548.864 561.285 549.427C557.953 556.354 557.236 562.076 559.153 566.442C561.23 571.168 566.047 573.492 569.721 574.61C570.215 574.762 570.605 575.144 570.765 575.635C570.927 576.126 570.84 576.66 570.531 577.071C553.559 599.852 533.379 636.459 533.145 681.855ZM563.409 689.33C550.567 689.33 539.204 686.935 531.114 684.568C530.44 684.373 529.976 683.752 529.974 683.052C529.859 637.375 549.581 600.393 566.707 576.92C562.8 575.397 558.415 572.64 556.251 567.719C554.031 562.661 554.628 556.34 558.025 548.907C556.737 546.995 553.959 541.987 554.966 535.579C555.945 529.344 560.185 523.629 567.578 518.585C563.865 512.452 549.885 487.419 562.385 477.656C562.727 477.389 563.163 477.274 563.592 477.339C564.021 477.404 564.405 477.642 564.656 477.995C564.918 478.371 591.086 515.511 598.684 528.457C606.001 540.933 608.673 567.986 601.646 580.145C602.252 624.531 607.512 654.708 617.283 669.833C617.734 670.533 617.569 671.463 616.906 671.961C599.199 685.304 580.062 689.33 563.409 689.33Z" fill="#FFFFFE"/>
<path d="M583.763 569.898C583.395 569.898 583.026 569.768 582.727 569.508C582.275 569.118 571.724 559.817 576.592 549.383C580.476 541.055 579.883 540.088 576.598 534.72L576.166 534.005C571.962 527.1 576.034 520.973 576.21 520.721C576.469 520.338 576.881 520.086 577.34 520.035C577.801 519.985 578.257 520.136 578.594 520.447L593.766 534.474C594.409 535.066 594.449 536.069 593.854 536.711C593.258 537.354 592.257 537.397 591.615 536.805L578.011 524.22C577.366 526.039 576.876 529.084 578.872 532.36L579.301 533.06C583.001 539.114 583.871 541.272 579.464 550.718C575.612 558.98 584.71 567.033 584.803 567.112C585.462 567.69 585.533 568.685 584.96 569.349C584.646 569.71 584.206 569.898 583.763 569.898Z" fill="#FFFFFE"/>
<path d="M569.019 557.508C567.24 557.508 565.465 556.815 564.156 555.459L558.716 549.837C558.109 549.21 558.125 548.207 558.754 547.6C559.384 546.987 560.385 547.002 560.994 547.637L566.434 553.258C567.721 554.593 569.851 554.715 571.282 553.539C571.961 552.984 572.958 553.085 573.513 553.763C574.066 554.441 573.967 555.437 573.29 555.993C572.05 557.01 570.532 557.508 569.019 557.508Z" fill="#FFFFFE"/>
<path d="M1058.12 1400.04L1101.11 1467.27L1142.86 1456.35C1120.36 1423.85 1094.52 1386.29 1088.87 1377.17L1058.12 1400.04ZM1100.4 1470.67C1099.86 1470.67 1099.36 1470.4 1099.06 1469.94L1054.65 1400.5C1054.2 1399.8 1054.37 1398.87 1055.04 1398.38L1088.35 1373.59C1088.79 1373.27 1089.38 1373.19 1089.89 1373.39C1090.32 1373.57 1090.65 1373.92 1090.81 1374.36C1092.32 1377.47 1125.04 1425.04 1146.75 1456.41C1147.05 1456.83 1147.12 1457.37 1146.94 1457.86C1146.76 1458.34 1146.35 1458.71 1145.85 1458.84L1100.79 1470.62C1100.66 1470.66 1100.53 1470.67 1100.4 1470.67Z" fill="#FFFFFE"/>
<path d="M1060.04 1476.18C1098.43 1526.54 1152.45 1548.78 1191.07 1558.57C1197.51 1560.2 1204.08 1557.96 1208.23 1552.72C1212.35 1547.53 1213.03 1540.67 1210.01 1534.83C1185.91 1488.33 1134.72 1435.62 1130.29 1431.1C1122.9 1429.24 1116.63 1429.84 1111.62 1432.88C1103.86 1437.6 1101.72 1446.75 1101.7 1446.84C1101.59 1447.29 1101.31 1447.67 1100.91 1447.89C1100.5 1448.11 1100.03 1448.14 1099.6 1447.98L1076.39 1439.45C1065.8 1451.45 1060.91 1472.17 1060.04 1476.18ZM1195.26 1562.26C1193.61 1562.26 1191.95 1562.06 1190.29 1561.64C1151.03 1551.69 1096.04 1529.02 1057.08 1477.52C1056.8 1477.16 1056.7 1476.7 1056.78 1476.26C1056.99 1475.21 1061.94 1450.26 1074.77 1436.52C1075.21 1436.05 1075.88 1435.89 1076.48 1436.11L1099.1 1444.43C1100.17 1441.22 1103.14 1434.35 1109.95 1430.19C1115.81 1426.62 1123.06 1425.92 1131.51 1428.14C1131.79 1428.21 1132.04 1428.36 1132.23 1428.56C1132.78 1429.11 1187.53 1484.56 1212.82 1533.37C1216.43 1540.33 1215.62 1548.51 1210.71 1554.69C1206.85 1559.57 1201.2 1562.26 1195.26 1562.26Z" fill="#FFFFFE"/>
<path d="M1190.25 1544.55C1170.88 1544.55 1129.07 1535.95 1068.54 1477.58C1067.91 1476.97 1067.89 1475.97 1068.49 1475.34C1069.11 1474.71 1070.11 1474.69 1070.74 1475.3C1153.09 1554.72 1200.96 1540.23 1201.43 1540.07C1202.26 1539.79 1203.15 1540.25 1203.43 1541.07C1203.71 1541.9 1203.26 1542.8 1202.43 1543.08C1201.87 1543.26 1197.74 1544.55 1190.25 1544.55Z" fill="#FFFFFE"/>
<path d="M1152.93 1500.94C1152.48 1500.94 1152.03 1500.75 1151.72 1500.38C1151.15 1499.72 1151.23 1498.71 1151.9 1498.15L1171.57 1481.45C1172.24 1480.89 1173.23 1480.96 1173.81 1481.63C1174.37 1482.3 1174.29 1483.3 1173.62 1483.87L1153.95 1500.57C1153.66 1500.82 1153.29 1500.94 1152.93 1500.94Z" fill="#FFFFFE"/>
<path d="M1139.03 1486.44C1138.57 1486.44 1138.1 1486.23 1137.79 1485.84C1137.25 1485.15 1137.36 1484.15 1138.05 1483.61L1159.54 1466.59C1160.22 1466.04 1161.23 1466.16 1161.77 1466.85C1162.31 1467.53 1162.19 1468.53 1161.51 1469.07L1140.02 1486.09C1139.72 1486.32 1139.38 1486.44 1139.03 1486.44Z" fill="#FFFFFE"/>
<path d="M916.215 1220.34L947.063 1262.25L979.738 1231.09L951.112 1193.55L916.215 1220.34ZM946.854 1266.23C946.804 1266.23 946.76 1266.22 946.71 1266.22C946.262 1266.18 945.844 1265.95 945.577 1265.58L912.737 1220.97C912.225 1220.28 912.369 1219.29 913.047 1218.78L950.441 1190.06C950.772 1189.81 951.198 1189.69 951.617 1189.75C952.035 1189.8 952.411 1190.03 952.663 1190.36L983.115 1230.3C983.605 1230.94 983.533 1231.85 982.949 1232.41L947.944 1265.79C947.648 1266.07 947.258 1266.23 946.854 1266.23Z" fill="#FFFFFE"/>
<path d="M926.585 1209.25C908.949 1209.41 889.156 1222.76 878.794 1230.82C874.19 1234.4 872.696 1240.77 875.251 1245.95C893.399 1282.82 933.433 1339.37 955.687 1369.8C957.693 1372.54 961.013 1373.8 964.354 1373.08C967.63 1372.38 970.091 1369.92 970.783 1366.67C979.111 1327.2 968.799 1266.78 967.637 1260.27L933.339 1232.49C933.087 1232.28 932.899 1232 932.813 1231.68L926.585 1209.25ZM962.485 1376.45C958.812 1376.45 955.37 1374.73 953.126 1371.67C930.814 1341.16 890.664 1284.44 872.408 1247.35C869.196 1240.82 871.065 1232.82 876.845 1228.31C887.597 1219.95 908.242 1206.08 926.917 1206.08C927.22 1206.08 927.531 1206.08 927.834 1206.09C928.526 1206.11 929.133 1206.58 929.32 1207.25L935.728 1230.35L970.091 1258.18C970.379 1258.42 970.581 1258.75 970.653 1259.12C970.769 1259.78 982.776 1325.15 973.879 1367.32C972.934 1371.82 969.535 1375.21 965.025 1376.18C964.173 1376.37 963.322 1376.45 962.485 1376.45Z" fill="#FFFFFE"/>
<path d="M957.44 1355.44C956.935 1355.44 956.444 1355.2 956.134 1354.76L900.773 1274.97C896.985 1269.5 895.296 1262.63 896.018 1255.63C897.396 1242.34 892.034 1228.7 891.977 1228.57C891.652 1227.75 892.049 1226.84 892.857 1226.51C893.68 1226.19 894.596 1226.58 894.921 1227.39C895.152 1227.98 900.629 1241.9 899.171 1255.95C898.529 1262.21 900.015 1268.32 903.378 1273.16L958.739 1352.95C959.237 1353.67 959.057 1354.66 958.342 1355.16C958.061 1355.35 957.751 1355.44 957.44 1355.44Z" fill="#FFFFFE"/>
<path d="M988.664 812.464C988.664 812.464 1095.44 896.769 1151.93 975.676C1167.72 997.728 1169.94 1026.75 1157.97 1051.08C1131.96 1103.91 1075.72 1198.64 988.664 1245.89L915.559 1152.48C915.559 1152.48 979.486 1081.79 1026.48 1049.6L906.647 915.285L876.853 847.83L988.664 812.464Z" fill="#7F5AF0"/>
<path d="M1040.04 1442.11C1043.84 1448.78 1129.95 1385.83 1129.95 1385.83C1129.95 1385.83 1064.06 1308.72 959.36 916.786C958.148 912.232 938.838 816.375 938.838 816.375L795.766 891.364C795.766 891.364 820.907 1056.31 1040.04 1442.11Z" fill="#7F5AF0"/>
<path d="M763.669 637.454C766.447 695.615 774.5 837.042 789.343 893.954C790.13 896.985 792.215 899.503 795.059 900.867C797.923 902.238 801.228 902.274 804.122 900.968C841.465 884.112 936.196 844.323 1009.26 838.81C1013.77 838.47 1017.79 836.118 1020.31 832.366C1022.83 828.592 1023.47 823.959 1022.05 819.644C1008.62 778.592 976.404 675.584 967.442 605.762C965.031 586.942 949.835 572.236 931.311 570.793C893.413 567.842 837.084 570.605 783.859 600.487C770.87 607.782 762.947 622.286 763.669 637.454ZM799.706 905.089C797.649 905.089 795.592 904.634 793.695 903.725C790.007 901.964 787.301 898.688 786.277 894.748C771.361 837.554 763.286 695.868 760.508 637.599C759.729 621.254 768.28 605.603 782.308 597.723C836.226 567.452 893.232 564.652 931.556 567.632C951.566 569.191 967.983 585.059 970.588 605.358C979.514 674.913 1011.66 777.697 1025.07 818.655C1026.79 823.901 1026.01 829.537 1022.94 834.126C1019.88 838.701 1014.98 841.559 1009.5 841.97C936.932 847.447 842.612 887.07 805.428 903.855C803.602 904.677 801.654 905.089 799.706 905.089Z" fill="#FFFFFE"/>
<path d="M827.091 495.79C827.091 495.79 815.964 473.175 812.046 469.192C808.121 465.216 805.09 461.009 816.628 453.295C828.167 445.574 858.315 424.965 876.781 425.095C895.254 425.232 908.192 436.893 902.506 445.307C896.827 453.721 894.215 457.264 898.595 457.805C902.982 458.353 905.399 463.239 892.981 470.433C880.562 477.627 837.28 508.844 827.091 495.79Z" fill="#7F5AF0"/>
<path d="M811.526 593.833L852.015 599.303C866.108 601.208 880.663 597.34 891.948 588.696L905.572 578.261L890.094 575.931C889.43 575.83 888.903 575.317 888.773 574.66L882.322 540.377C882.192 539.677 882.539 538.985 883.167 538.667C898.768 530.838 895.542 520.742 892.425 510.979C891.92 509.406 891.443 507.912 891.046 506.426C888.441 496.757 881.189 477.295 878.988 471.443C865.3 478.435 843.255 477.959 835.382 477.526C836.623 480.261 837.922 484.489 835.837 487.34C834.321 489.418 834.531 497.889 835.159 503.244C835.238 503.908 834.899 504.55 834.3 504.846C833.708 505.141 832.987 505.04 832.503 504.586C832.315 504.413 827.748 500.271 822.927 503.511C821.491 504.478 822.516 510.59 826.687 518.772C828.758 522.842 833.015 524.105 834.011 524.351C834.228 524.343 834.48 524.379 834.711 524.459C835.541 524.733 836.703 525.556 838.37 529.524C838.485 529.813 838.521 530.131 838.463 530.434L827.863 586.278C827.769 586.805 827.409 587.245 826.918 587.447L811.526 593.833ZM859.101 602.947C856.597 602.947 854.086 602.781 851.589 602.442L805.284 596.193C804.577 596.099 804.022 595.536 803.928 594.829C803.834 594.115 804.231 593.436 804.887 593.162L824.912 584.849L835.26 530.318C834.459 528.485 833.925 527.778 833.701 527.526C833.686 527.518 833.672 527.518 833.658 527.518C833.383 527.468 826.932 526.248 823.858 520.209C821.448 515.475 816.361 504.11 821.16 500.877C824.991 498.308 828.902 498.943 831.695 500.285C831.363 495.739 831.19 488.335 833.275 485.471C834.855 483.313 832.323 478.211 831.305 476.588C830.988 476.083 830.988 475.433 831.298 474.921C831.615 474.409 832.186 474.12 832.792 474.17C833.102 474.199 863.719 476.804 879.025 467.813C879.421 467.575 879.912 467.532 880.352 467.683C880.793 467.835 881.139 468.181 881.305 468.614C881.702 469.646 890.996 494.043 894.106 505.603C894.488 507.018 894.95 508.475 895.441 510.02C898.573 519.812 902.448 531.949 885.656 540.947L891.681 572.965L909.736 575.685C910.364 575.779 910.876 576.241 911.035 576.861C911.194 577.475 910.97 578.124 910.465 578.514L893.875 591.214C883.924 598.834 871.57 602.947 859.101 602.947Z" fill="#FFFFFE"/>
<path d="M865.999 545.724C848.284 545.724 841.688 532.043 841.609 531.862C841.241 531.069 841.587 530.123 842.381 529.755C843.168 529.387 844.113 529.734 844.481 530.527C844.878 531.372 854.381 550.725 883.267 538.617C884.075 538.285 885.006 538.66 885.345 539.468C885.677 540.276 885.302 541.207 884.494 541.539C877.307 544.555 871.18 545.724 865.999 545.724Z" fill="#FFFFFE"/>
<path d="M826.925 501.05C831.485 503.597 866.937 522.351 907.989 514.002C910.544 513.483 912.73 511.989 914.145 509.796C915.566 507.595 916.035 504.982 915.451 502.428C915.436 502.37 915.429 502.313 915.422 502.255L911.965 471.861C911.381 469.372 909.865 467.257 907.693 465.908C905.5 464.537 902.902 464.111 900.391 464.703L821.729 485.882L826.925 501.05ZM886.565 519.292C851.726 519.292 825.121 503.676 824.803 503.489C824.486 503.294 824.24 502.998 824.118 502.644L818.186 485.305C818.042 484.893 818.078 484.439 818.287 484.049C818.489 483.666 818.85 483.378 819.269 483.262L899.612 461.629C903.003 460.828 906.46 461.398 909.375 463.216C912.29 465.035 914.318 467.885 915.083 471.24C915.09 471.291 915.097 471.356 915.104 471.407L918.561 501.815C919.304 505.177 918.683 508.619 916.807 511.513C914.931 514.435 912.016 516.42 908.624 517.105C901.033 518.65 893.629 519.292 886.565 519.292Z" fill="#FFFFFE"/>
<path d="M862.392 505.452C861.988 505.452 861.584 505.3 861.273 504.99C860.653 504.369 860.653 503.366 861.273 502.746L875.669 488.357C876.283 487.737 877.286 487.737 877.906 488.357C878.527 488.971 878.527 489.981 877.906 490.594L863.518 504.99C863.207 505.3 862.796 505.452 862.392 505.452Z" fill="#FFFFFE"/>
<path d="M883.88 502.66C883.476 502.66 883.072 502.508 882.762 502.198C882.141 501.577 882.141 500.574 882.762 499.954L904.316 478.399C904.937 477.779 905.94 477.779 906.56 478.399C907.174 479.02 907.174 480.023 906.56 480.636L884.999 502.198C884.688 502.508 884.284 502.66 883.88 502.66Z" fill="#FFFFFE"/>
<path d="M617.446 1373.65C617.432 1373.65 617.418 1373.65 617.403 1373.65C567.852 1372.32 536.351 1359.3 523.776 1334.92L251.859 807.817C251.458 807.038 251.763 806.085 252.541 805.681C253.317 805.284 254.273 805.587 254.676 806.367C269.529 835.158 313.889 847.584 382.965 842.295C450.925 837.099 538.083 815.199 635.017 778.967C654.664 771.629 676.732 780.151 686.349 798.797L921.44 1254.51C926.888 1265.07 927.537 1277.48 923.222 1288.55C918.9 1299.65 910.003 1308.35 898.818 1312.46C870.733 1322.75 843.089 1331.96 816.642 1339.82C815.805 1340.07 814.917 1339.59 814.672 1338.75C814.419 1337.91 814.896 1337.03 815.74 1336.78C842.122 1328.94 869.708 1319.76 897.728 1309.48C908.061 1305.69 916.273 1297.65 920.264 1287.4C924.247 1277.17 923.648 1265.72 918.618 1255.96L683.533 800.247C674.65 783.03 654.269 775.157 636.126 781.94C521.466 824.789 423.353 846.639 354.209 846.639C311.971 846.646 280.551 838.492 262.743 822.004L526.592 1333.47C538.428 1356.41 569.86 1369.21 617.487 1370.48C618.362 1370.5 619.052 1371.23 619.029 1372.1C619.006 1372.96 618.301 1373.65 617.446 1373.65Z" fill="#FFFFFE"/>
<path d="M665.789 1371.62C664.985 1371.62 664.295 1371 664.214 1370.19C664.128 1369.32 664.763 1368.54 665.634 1368.46C690.858 1365.95 718.898 1361.21 748.978 1354.38C749.836 1354.18 750.681 1354.72 750.875 1355.58C751.07 1356.43 750.536 1357.28 749.678 1357.47C719.473 1364.33 691.301 1369.09 665.948 1371.61C665.895 1371.62 665.841 1371.62 665.789 1371.62Z" fill="#FFFFFE"/>
<path d="M1058.1 1240.11C1043.01 1240.11 1028.39 1231.89 1021.08 1217.71C1020.67 1216.94 1020.98 1215.98 1021.76 1215.58C1022.54 1215.17 1023.49 1215.48 1023.89 1216.26C1033.4 1234.7 1056.31 1242.21 1074.94 1233.01C1085.24 1227.92 1095.66 1222.66 1105.91 1217.37C1241.01 1147.68 1360.19 1067.02 1441.51 990.266C1522.37 913.935 1556.04 850.839 1536.31 812.594L1272.51 301.21C1277.73 341.093 1242.8 398.417 1171.77 465.461C1090.24 542.42 970.804 623.253 835.447 693.082C825.539 698.191 815.473 703.279 805.536 708.193C796.278 712.775 789.408 720.698 786.183 730.512C782.957 740.347 783.787 750.825 788.535 760.032L866.208 910.602C866.612 911.381 866.309 912.333 865.53 912.737C864.751 913.142 863.798 912.831 863.394 912.059L785.721 761.483C780.583 751.518 779.674 740.167 783.174 729.523C786.666 718.901 794.106 710.314 804.129 705.357C814.051 700.443 824.096 695.37 833.989 690.261C969.094 620.569 1088.28 539.916 1169.59 463.159C1250.4 386.886 1284.07 323.825 1264.43 285.573L1264.39 285.487C1263.99 284.708 1264.29 283.755 1265.07 283.351C1265.84 282.947 1266.8 283.257 1267.21 284.029L1539.12 811.136C1559.56 850.752 1525.66 915.184 1443.68 992.568C1362.16 1069.53 1242.72 1150.36 1107.36 1220.19C1097.1 1225.48 1086.66 1230.75 1076.34 1235.85C1070.49 1238.74 1064.26 1240.11 1058.1 1240.11Z" fill="#FFFFFE"/>
<path d="M969.289 1115.46C968.719 1115.46 968.163 1115.15 967.882 1114.6L945.253 1070.73C944.849 1069.95 945.159 1069 945.938 1068.6C946.71 1068.2 947.67 1068.5 948.067 1069.28L970.696 1113.15C971.1 1113.93 970.797 1114.88 970.018 1115.28C969.787 1115.41 969.534 1115.46 969.289 1115.46Z" fill="#FFFFFE"/>
<path d="M865.783 759.932C865.213 759.932 864.657 759.621 864.376 759.073C863.972 758.301 864.275 757.341 865.054 756.944C1079.33 646.41 1250.82 508.555 1291.81 413.917C1292.15 413.116 1293.08 412.748 1293.89 413.095C1294.69 413.441 1295.06 414.379 1294.72 415.18C1253.46 510.438 1081.38 648.914 866.512 759.759C866.274 759.881 866.028 759.932 865.783 759.932Z" fill="#7F5AF0"/>
<path d="M891.631 814.643C891.054 814.643 890.498 814.333 890.217 813.784C889.82 813.005 890.123 812.053 890.902 811.648C1105.17 701.114 1276.66 563.267 1317.65 468.629C1318 467.828 1318.93 467.452 1319.73 467.799C1320.54 468.152 1320.91 469.083 1320.56 469.884C1279.3 565.15 1107.22 703.625 892.353 814.463C892.122 814.585 891.876 814.643 891.631 814.643Z" fill="#7F5AF0"/>
<path d="M986.059 832.258C985.504 832.258 984.97 831.969 984.681 831.449C984.248 830.692 984.515 829.725 985.28 829.292C1038.77 798.97 1089.02 767.119 1134.63 734.625C1135.34 734.113 1136.33 734.286 1136.84 734.993C1137.34 735.707 1137.18 736.696 1136.46 737.201C1090.77 769.76 1040.43 801.676 986.839 832.048C986.593 832.193 986.326 832.258 986.059 832.258Z" fill="#7F5AF0"/>
<path d="M1172.48 710.257C1172 710.257 1171.52 710.047 1171.21 709.636C1170.68 708.943 1170.82 707.948 1171.51 707.414C1260.45 639.41 1321.54 574.04 1343.5 523.333C1343.84 522.532 1344.78 522.164 1345.58 522.511C1346.38 522.857 1346.75 523.788 1346.4 524.596C1324.24 575.786 1262.81 641.604 1173.44 709.932C1173.15 710.156 1172.81 710.257 1172.48 710.257Z" fill="#7F5AF0"/>
<path d="M1079.52 846.747C1078.99 846.747 1078.47 846.48 1078.18 845.997C1077.71 845.253 1077.94 844.279 1078.68 843.817C1131.83 810.631 1180.14 776.564 1222.27 742.555C1222.96 742.007 1223.96 742.115 1224.5 742.793C1225.05 743.472 1224.94 744.475 1224.27 745.023C1182.03 779.111 1133.61 813.258 1080.36 846.502C1080.1 846.668 1079.81 846.747 1079.52 846.747Z" fill="#7F5AF0"/>
<path d="M1252.23 721.16C1251.78 721.16 1251.34 720.972 1251.03 720.611C1250.45 719.947 1250.53 718.952 1251.19 718.374C1311.34 666.145 1352.21 617.617 1369.34 578.045C1369.69 577.236 1370.61 576.868 1371.42 577.215C1372.23 577.568 1372.6 578.499 1372.25 579.3C1354.93 619.306 1313.78 668.23 1253.27 720.77C1252.96 721.03 1252.6 721.16 1252.23 721.16Z" fill="#7F5AF0"/>
<path d="M995.007 1033.48C994.437 1033.48 993.881 1033.16 993.6 1032.62C993.203 1031.84 993.506 1030.88 994.285 1030.48C1004.06 1025.44 1013.93 1020.24 1023.63 1015.03C1024.4 1014.62 1025.36 1014.91 1025.78 1015.68C1026.19 1016.45 1025.9 1017.41 1025.13 1017.82C1015.41 1023.04 1005.53 1028.24 995.736 1033.29C995.505 1033.42 995.252 1033.48 995.007 1033.48Z" fill="#FFFFFE"/>
<path d="M1115.46 965.883C1114.92 965.883 1114.4 965.616 1114.1 965.126C1113.64 964.382 1113.88 963.401 1114.63 962.946C1192.58 915.393 1262.07 864.773 1315.59 816.548C1368.73 768.67 1405.19 724.032 1421.03 687.454C1421.38 686.653 1422.3 686.285 1423.12 686.631C1423.92 686.978 1424.29 687.916 1423.94 688.717C1391.05 764.665 1276.04 868.193 1116.28 965.652C1116.02 965.811 1115.74 965.883 1115.46 965.883Z" fill="#7F5AF0"/>
<path d="M1119.86 1033.48C1119.32 1033.48 1118.79 1033.19 1118.49 1032.7C1118.05 1031.95 1118.3 1030.97 1119.05 1030.52C1287.35 930.972 1412.96 820.481 1446.88 742.165C1447.23 741.364 1448.15 740.989 1448.96 741.343C1449.77 741.689 1450.13 742.62 1449.79 743.421C1415.61 822.321 1289.51 933.375 1120.67 1033.25C1120.41 1033.4 1120.13 1033.48 1119.86 1033.48Z" fill="#7F5AF0"/>
<path d="M1046.7 1142.89C1046.13 1142.89 1045.57 1142.57 1045.29 1142.03C1044.89 1141.25 1045.19 1140.29 1045.97 1139.9C1065.73 1129.7 1085.46 1119.11 1104.6 1108.41C1105.35 1107.98 1106.32 1108.26 1106.75 1109.02C1107.18 1109.78 1106.91 1110.74 1106.14 1111.18C1086.98 1121.89 1067.22 1132.5 1047.42 1142.71C1047.19 1142.83 1046.95 1142.89 1046.7 1142.89Z" fill="#FFFFFE"/>
<path d="M1105.37 1111.38C1104.81 1111.38 1104.28 1111.08 1103.98 1110.56C1103.56 1109.8 1103.83 1108.83 1104.6 1108.41C1291.52 1003.9 1436.02 881.622 1472.72 796.87C1473.07 796.069 1474.01 795.701 1474.81 796.047C1475.61 796.394 1475.98 797.332 1475.63 798.133C1457.52 839.935 1413.69 891.169 1348.86 946.292C1283.26 1002.06 1199.34 1059.07 1106.14 1111.18C1105.9 1111.31 1105.63 1111.38 1105.37 1111.38Z" fill="#7F5AF0"/>
<path d="M1358.67 1179.44C1358.18 1179.44 1357.7 1179.22 1357.39 1178.79C1356.87 1178.08 1357.03 1177.09 1357.73 1176.58C1362.89 1172.8 1368.03 1169 1373 1165.27C1373.7 1164.74 1374.69 1164.89 1375.22 1165.59C1375.74 1166.29 1375.6 1167.27 1374.9 1167.8C1369.92 1171.54 1364.78 1175.36 1359.6 1179.13C1359.32 1179.34 1359 1179.44 1358.67 1179.44ZM1327.69 1201.5C1327.19 1201.5 1326.7 1201.26 1326.39 1200.81C1325.89 1200.1 1326.06 1199.11 1326.78 1198.61C1331.98 1195.01 1337.21 1191.33 1342.33 1187.69C1343.04 1187.18 1344.03 1187.35 1344.54 1188.06C1345.04 1188.77 1344.87 1189.76 1344.16 1190.27C1339.04 1193.92 1333.8 1197.6 1328.59 1201.22C1328.31 1201.41 1328 1201.5 1327.69 1201.5ZM1296.22 1222.83C1295.71 1222.83 1295.21 1222.58 1294.9 1222.12C1294.42 1221.39 1294.62 1220.41 1295.35 1219.92C1300.67 1216.4 1305.92 1212.88 1311.12 1209.36C1311.84 1208.87 1312.83 1209.06 1313.32 1209.78C1313.81 1210.51 1313.62 1211.49 1312.9 1211.99C1307.69 1215.51 1302.42 1219.04 1297.1 1222.56C1296.83 1222.74 1296.53 1222.83 1296.22 1222.83ZM1264.32 1243.48C1263.8 1243.48 1263.28 1243.22 1262.98 1242.75C1262.51 1242 1262.73 1241.03 1263.47 1240.56C1268.86 1237.15 1274.19 1233.73 1279.46 1230.32C1280.2 1229.84 1281.18 1230.05 1281.66 1230.79C1282.13 1231.53 1281.92 1232.51 1281.19 1232.98C1275.9 1236.4 1270.56 1239.82 1265.17 1243.24C1264.91 1243.4 1264.61 1243.48 1264.32 1243.48ZM1232.02 1263.51C1231.48 1263.51 1230.96 1263.23 1230.67 1262.74C1230.21 1261.99 1230.45 1261.02 1231.19 1260.56C1236.64 1257.26 1242.03 1253.95 1247.38 1250.64C1248.12 1250.18 1249.1 1250.4 1249.57 1251.15C1250.02 1251.9 1249.8 1252.87 1249.05 1253.33C1243.7 1256.65 1238.29 1259.96 1232.84 1263.28C1232.59 1263.43 1232.3 1263.51 1232.02 1263.51Z" fill="#FFFFFE"/>
<path d="M1416.7 1134.61C1416.24 1134.61 1415.79 1134.41 1415.48 1134.03C1414.92 1133.35 1415.01 1132.36 1415.69 1131.8C1420.67 1127.71 1425.58 1123.62 1430.27 1119.63C1430.94 1119.06 1431.94 1119.15 1432.51 1119.82C1433.07 1120.49 1432.99 1121.48 1432.33 1122.05C1427.61 1126.05 1422.7 1130.15 1417.71 1134.25C1417.41 1134.49 1417.05 1134.61 1416.7 1134.61Z" fill="#FFFFFE"/>
<path d="M1553.16 988.938C1552.88 988.938 1552.6 988.866 1552.35 988.715C1551.6 988.267 1551.35 987.293 1551.79 986.543C1555.14 980.907 1558.17 975.322 1560.77 969.939C1561.15 969.152 1562.11 968.827 1562.89 969.21C1563.68 969.592 1564.01 970.538 1563.62 971.324C1560.97 976.787 1557.91 982.451 1554.52 988.159C1554.23 988.664 1553.7 988.938 1553.16 988.938ZM1531.73 1020.34C1531.39 1020.34 1531.06 1020.23 1530.77 1020C1530.07 1019.48 1529.94 1018.48 1530.47 1017.78C1534.43 1012.62 1538.17 1007.47 1541.6 1002.47C1542.09 1001.75 1543.08 1001.56 1543.8 1002.06C1544.52 1002.55 1544.7 1003.54 1544.21 1004.26C1540.75 1009.3 1536.98 1014.5 1532.99 1019.71C1532.68 1020.12 1532.21 1020.34 1531.73 1020.34ZM1507.37 1049.53C1507 1049.53 1506.62 1049.39 1506.32 1049.12C1505.67 1048.54 1505.61 1047.53 1506.2 1046.88C1510.51 1042.08 1514.7 1037.27 1518.63 1032.57C1519.19 1031.9 1520.18 1031.81 1520.86 1032.37C1521.53 1032.93 1521.62 1033.93 1521.06 1034.6C1517.1 1039.33 1512.89 1044.18 1508.56 1049C1508.24 1049.35 1507.81 1049.53 1507.37 1049.53ZM1481.09 1077C1480.68 1077 1480.27 1076.85 1479.97 1076.53C1479.35 1075.91 1479.35 1074.91 1479.97 1074.29C1484.53 1069.79 1489.01 1065.24 1493.29 1060.78C1493.89 1060.15 1494.9 1060.12 1495.53 1060.73C1496.17 1061.34 1496.19 1062.34 1495.57 1062.97C1491.28 1067.46 1486.78 1072.02 1482.2 1076.55C1481.89 1076.85 1481.49 1077 1481.09 1077ZM1458.25 1098.69C1457.83 1098.69 1457.4 1098.51 1457.08 1098.17C1456.5 1097.53 1456.54 1096.53 1457.18 1095.94C1460.28 1093.1 1463.33 1090.28 1466.31 1087.47C1466.95 1086.87 1467.95 1086.9 1468.55 1087.53C1469.16 1088.17 1469.12 1089.18 1468.49 1089.77C1465.49 1092.6 1462.43 1095.43 1459.33 1098.28C1459.03 1098.55 1458.64 1098.69 1458.25 1098.69Z" fill="#FFFFFE"/>
<path d="M403.734 1266.34C403.282 1266.34 402.832 1266.16 402.519 1265.78C401.958 1265.11 402.046 1264.11 402.716 1263.54C405.655 1261.08 408.632 1258.61 411.646 1256.15C412.324 1255.59 413.321 1255.69 413.877 1256.36C414.432 1257.04 414.332 1258.04 413.656 1258.59C410.65 1261.06 407.682 1263.52 404.752 1265.97C404.455 1266.22 404.094 1266.34 403.734 1266.34ZM375.033 1291.3C374.6 1291.3 374.169 1291.12 373.856 1290.78C373.269 1290.13 373.32 1289.12 373.969 1288.54C378.592 1284.35 383.389 1280.1 388.227 1275.9C388.889 1275.33 389.89 1275.4 390.462 1276.06C391.036 1276.72 390.966 1277.72 390.305 1278.3C385.484 1282.49 380.702 1286.72 376.094 1290.88C375.791 1291.16 375.411 1291.3 375.033 1291.3ZM347.396 1317.42C346.988 1317.42 346.581 1317.27 346.271 1316.96C345.654 1316.34 345.659 1315.33 346.28 1314.71C350.685 1310.35 355.292 1305.89 359.975 1301.46C360.611 1300.86 361.613 1300.89 362.216 1301.53C362.817 1302.16 362.788 1303.17 362.151 1303.77C357.488 1308.17 352.899 1312.61 348.512 1316.96C348.203 1317.27 347.799 1317.42 347.396 1317.42ZM321.162 1344.95C320.786 1344.95 320.409 1344.82 320.107 1344.55C319.454 1343.97 319.399 1342.96 319.982 1342.31C324.104 1337.71 328.46 1333 332.93 1328.31C333.536 1327.69 334.538 1327.66 335.171 1328.26C335.804 1328.87 335.828 1329.87 335.224 1330.51C330.775 1335.17 326.442 1339.85 322.344 1344.43C322.03 1344.77 321.597 1344.95 321.162 1344.95ZM296.886 1374.21C296.551 1374.21 296.215 1374.11 295.929 1373.9C295.232 1373.36 295.096 1372.37 295.626 1371.67C299.343 1366.78 303.342 1361.76 307.513 1356.74C308.072 1356.07 309.073 1355.98 309.744 1356.54C310.418 1357.1 310.51 1358.1 309.951 1358.77C305.807 1363.75 301.838 1368.74 298.149 1373.59C297.837 1374 297.365 1374.21 296.886 1374.21ZM275.589 1405.7C275.317 1405.7 275.04 1405.63 274.788 1405.48C274.034 1405.03 273.781 1404.07 274.224 1403.31C277.306 1398.06 280.75 1392.62 284.46 1387.17C284.952 1386.45 285.938 1386.26 286.662 1386.75C287.386 1387.24 287.574 1388.23 287.082 1388.95C283.41 1394.35 280.004 1399.72 276.957 1404.91C276.662 1405.42 276.132 1405.7 275.589 1405.7ZM259.41 1440.04C259.24 1440.04 259.066 1440.01 258.896 1439.95C258.068 1439.66 257.628 1438.76 257.911 1437.94C259.874 1432.22 262.332 1426.25 265.217 1420.2C265.593 1419.41 266.539 1419.08 267.329 1419.45C268.118 1419.83 268.452 1420.78 268.076 1421.57C265.244 1427.51 262.832 1433.36 260.909 1438.96C260.684 1439.62 260.069 1440.04 259.41 1440.04ZM253.354 1477.32C252.515 1477.32 251.816 1476.66 251.773 1475.82C251.708 1474.53 251.676 1473.23 251.676 1471.92C251.676 1467 252.139 1461.82 253.053 1456.55C253.203 1455.68 254.022 1455.11 254.885 1455.26C255.747 1455.41 256.325 1456.22 256.176 1457.09C255.293 1462.19 254.845 1467.18 254.845 1471.92C254.845 1473.18 254.876 1474.42 254.937 1475.66C254.982 1476.53 254.31 1477.27 253.435 1477.32C253.408 1477.32 253.381 1477.32 253.354 1477.32ZM759.448 1482.96C758.784 1482.96 758.17 1482.54 757.947 1481.88C757.665 1481.05 758.113 1480.15 758.943 1479.87C764.91 1477.87 770.907 1475.82 776.932 1473.74C777.755 1473.46 778.657 1473.9 778.945 1474.72C779.234 1475.55 778.794 1476.45 777.964 1476.74C771.931 1478.83 765.928 1480.87 759.953 1482.87C759.787 1482.93 759.614 1482.96 759.448 1482.96ZM723.281 1494.72C722.603 1494.72 721.982 1494.29 721.766 1493.61C721.505 1492.77 721.968 1491.89 722.805 1491.63C728.801 1489.74 734.834 1487.81 740.903 1485.83C741.732 1485.56 742.627 1486.02 742.901 1486.85C743.168 1487.69 742.714 1488.57 741.884 1488.85C735.808 1490.83 729.761 1492.76 723.757 1494.65C723.599 1494.7 723.433 1494.72 723.281 1494.72ZM686.886 1505.77C686.2 1505.77 685.568 1505.32 685.365 1504.63C685.12 1503.79 685.602 1502.91 686.442 1502.67C692.475 1500.9 698.545 1499.09 704.651 1497.24C705.484 1496.98 706.372 1497.46 706.627 1498.29C706.881 1499.13 706.409 1500.02 705.572 1500.27C699.455 1502.13 693.374 1503.94 687.332 1505.7C687.183 1505.75 687.033 1505.77 686.886 1505.77ZM265.867 1512.61C265.385 1512.61 264.91 1512.39 264.599 1511.98C261.91 1508.4 259.603 1504.56 257.745 1500.57C256.884 1498.71 256.106 1496.8 255.43 1494.87C255.14 1494.04 255.575 1493.13 256.401 1492.85C257.225 1492.56 258.13 1493 258.421 1493.82C259.062 1495.65 259.802 1497.47 260.619 1499.23C262.384 1503.03 264.575 1506.67 267.132 1510.08C267.658 1510.78 267.517 1511.77 266.818 1512.29C266.532 1512.51 266.198 1512.61 265.867 1512.61ZM650.265 1516.05C649.565 1516.05 648.925 1515.58 648.736 1514.87C648.508 1514.02 649.01 1513.15 649.855 1512.93C655.897 1511.3 662.061 1509.62 668.177 1507.9C669.02 1507.66 669.894 1508.15 670.13 1509C670.366 1509.84 669.875 1510.71 669.033 1510.95C662.906 1512.67 656.729 1514.36 650.677 1515.99C650.539 1516.02 650.4 1516.05 650.265 1516.05ZM613.418 1525.46C612.704 1525.46 612.056 1524.98 611.88 1524.25C611.673 1523.4 612.196 1522.55 613.046 1522.34C619.115 1520.87 625.317 1519.32 631.479 1517.74C632.331 1517.52 633.19 1518.04 633.406 1518.89C633.624 1519.73 633.112 1520.6 632.264 1520.82C626.09 1522.4 619.875 1523.94 613.793 1525.42C613.668 1525.45 613.542 1525.46 613.418 1525.46ZM576.34 1533.93C575.609 1533.93 574.95 1533.42 574.791 1532.68C574.608 1531.82 575.154 1530.98 576.01 1530.79C582.103 1529.5 588.343 1528.11 594.556 1526.69C595.407 1526.49 596.26 1527.03 596.454 1527.89C596.649 1528.74 596.116 1529.59 595.261 1529.78C589.034 1531.21 582.779 1532.59 576.672 1533.89C576.56 1533.92 576.449 1533.93 576.34 1533.93ZM295.329 1536.08C295.091 1536.08 294.849 1536.02 294.621 1535.9C288.558 1532.87 283.051 1529.44 278.252 1525.71C277.561 1525.17 277.437 1524.18 277.974 1523.49C278.511 1522.79 279.506 1522.67 280.197 1523.2C284.833 1526.81 290.163 1530.13 296.04 1533.08C296.823 1533.46 297.139 1534.42 296.748 1535.2C296.47 1535.75 295.911 1536.08 295.329 1536.08ZM539.031 1541.31C538.279 1541.31 537.611 1540.77 537.473 1540.01C537.317 1539.15 537.889 1538.32 538.75 1538.17C544.88 1537.06 551.157 1535.86 557.407 1534.63C558.261 1534.45 559.099 1535.02 559.269 1535.87C559.44 1536.73 558.881 1537.56 558.022 1537.74C551.757 1538.98 545.463 1540.17 539.315 1541.29C539.219 1541.3 539.124 1541.31 539.031 1541.31ZM501.494 1547.43C500.717 1547.43 500.04 1546.86 499.927 1546.07C499.802 1545.21 500.403 1544.4 501.27 1544.27C507.419 1543.39 513.733 1542.42 520.036 1541.4C520.893 1541.25 521.714 1541.84 521.855 1542.7C521.996 1543.57 521.411 1544.38 520.547 1544.52C514.223 1545.55 507.889 1546.53 501.72 1547.41C501.645 1547.43 501.568 1547.43 501.494 1547.43ZM331.216 1548.36C331.101 1548.36 330.985 1548.34 330.868 1548.32C324.349 1546.86 318.134 1545.14 312.395 1543.21C311.564 1542.93 311.118 1542.04 311.395 1541.21C311.674 1540.38 312.575 1539.93 313.402 1540.21C319.039 1542.1 325.149 1543.79 331.562 1545.23C332.416 1545.42 332.952 1546.27 332.761 1547.12C332.595 1547.86 331.942 1548.36 331.216 1548.36ZM463.742 1552.03C462.936 1552.03 462.247 1551.42 462.167 1550.6C462.08 1549.73 462.717 1548.96 463.587 1548.87C469.723 1548.26 476.07 1547.56 482.452 1546.78C483.32 1546.68 484.112 1547.29 484.218 1548.16C484.324 1549.03 483.706 1549.82 482.837 1549.92C476.431 1550.71 470.059 1551.42 463.898 1552.02C463.845 1552.03 463.793 1552.03 463.742 1552.03ZM368.81 1553.89C368.766 1553.89 368.721 1553.89 368.677 1553.89C362.118 1553.34 355.729 1552.63 349.689 1551.76C348.823 1551.63 348.222 1550.83 348.347 1549.96C348.472 1549.09 349.274 1548.5 350.142 1548.62C356.119 1549.48 362.443 1550.19 368.938 1550.73C369.81 1550.8 370.459 1551.57 370.387 1552.44C370.318 1553.27 369.625 1553.89 368.81 1553.89ZM425.812 1554.74C424.967 1554.74 424.266 1554.07 424.23 1553.22C424.193 1552.35 424.872 1551.61 425.747 1551.58C431.891 1551.32 438.262 1550.95 444.684 1550.49C445.563 1550.42 446.316 1551.08 446.379 1551.95C446.441 1552.83 445.785 1553.58 444.912 1553.65C438.458 1554.12 432.056 1554.48 425.879 1554.74C425.857 1554.74 425.835 1554.74 425.812 1554.74ZM403.118 1555.24C397.891 1555.24 392.716 1555.15 387.738 1554.98C386.863 1554.95 386.177 1554.23 386.207 1553.34C386.235 1552.47 386.956 1551.79 387.844 1551.82C393.946 1552.02 400.311 1552.1 406.792 1552.05C407.634 1552 408.381 1552.75 408.388 1553.63C408.394 1554.5 407.69 1555.21 406.815 1555.22C405.576 1555.23 404.343 1555.24 403.118 1555.24Z" fill="#7F5AF0"/>
<path d="M550.145 355.206C536.99 332.172 508.078 324.502 486.083 338.486C464.638 352.117 458.146 380.707 471.384 403.105C477.766 413.908 487.562 421.283 498.545 424.443C506.971 426.868 514.207 432.518 518.651 440.304L521.289 444.922C523.469 448.739 528.225 450.053 531.908 447.852L558.802 431.789C562.486 429.588 563.705 424.71 561.524 420.893L558.897 416.296C554.515 408.626 553.048 399.497 555.176 390.946C558.084 379.271 556.584 366.477 550.145 355.206Z" fill="#2CB67D"/>
<path d="M528.644 448.677L534.259 458.512C536.721 462.82 540.656 465.872 545.342 467.099C549.851 468.282 554.533 467.626 558.527 465.237C566.954 460.208 569.743 448.987 564.743 440.234L559.156 430.456L528.644 448.677ZM549.76 470.844C548.02 470.844 546.267 470.62 544.537 470.166C539.021 468.715 534.394 465.136 531.508 460.085L525.121 448.9C524.692 448.15 524.943 447.197 525.685 446.757L558.919 426.906C559.284 426.689 559.721 426.624 560.133 426.733C560.545 426.841 560.896 427.115 561.106 427.483L567.494 438.668C573.344 448.907 570.05 462.048 560.152 467.958C556.955 469.87 553.386 470.844 549.76 470.844Z" fill="#2CB67D"/>
<path d="M468.874 308.26C468.325 308.26 467.791 307.979 467.497 307.466L444.199 266.818C443.763 266.061 444.026 265.087 444.786 264.654C445.544 264.221 446.513 264.48 446.949 265.238L470.247 305.893C470.682 306.651 470.42 307.618 469.659 308.051C469.411 308.195 469.141 308.26 468.874 308.26Z" fill="#FFFFFE"/>
<path d="M391.946 459.06C391.396 459.06 390.862 458.772 390.569 458.259C390.135 457.502 390.397 456.535 391.156 456.095L444.122 425.766C444.883 425.333 445.849 425.6 446.284 426.358C446.719 427.115 446.456 428.082 445.697 428.522L392.732 458.844C392.483 458.988 392.213 459.06 391.946 459.06Z" fill="#FFFFFE"/>
<path d="M581.364 352.04C580.808 352.04 580.268 351.751 579.978 351.232C579.552 350.467 579.826 349.5 580.59 349.074L635.368 318.522C636.135 318.096 637.099 318.37 637.524 319.135C637.95 319.9 637.675 320.867 636.912 321.293L582.135 351.838C581.89 351.975 581.624 352.04 581.364 352.04Z" fill="#FFFFFE"/>
<path d="M429.559 366.357C429.417 366.357 429.272 366.335 429.128 366.292L377.601 351.759C376.759 351.52 376.269 350.647 376.506 349.803C376.744 348.966 377.62 348.475 378.462 348.713L429.988 363.246C430.831 363.485 431.321 364.358 431.083 365.202C430.887 365.895 430.251 366.357 429.559 366.357Z" fill="#FFFFFE"/>
<path d="M537.288 308.087C537.149 308.087 537.006 308.073 536.866 308.029C536.022 307.798 535.527 306.925 535.759 306.081L550.79 251.629C551.023 250.785 551.894 250.294 552.739 250.525C553.583 250.756 554.078 251.629 553.845 252.474L538.815 306.925C538.621 307.625 537.983 308.087 537.288 308.087Z" fill="#FFFFFE"/>
<path d="M1436.95 259.819C1436.92 259.819 1436.89 259.819 1436.86 259.819C1430.8 259.48 1424.43 259.292 1417.94 259.264C1417.06 259.264 1416.36 258.549 1416.36 257.676C1416.36 256.803 1417.07 256.096 1417.94 256.096C1424.5 256.125 1430.92 256.312 1437.04 256.651C1437.91 256.702 1438.57 257.452 1438.53 258.326C1438.48 259.17 1437.78 259.819 1436.95 259.819ZM1379.94 260.685C1379.12 260.685 1378.43 260.05 1378.36 259.22C1378.3 258.347 1378.96 257.582 1379.83 257.517C1386.31 257.041 1392.71 256.673 1398.86 256.435C1399.71 256.406 1400.48 257.084 1400.51 257.958C1400.55 258.831 1399.87 259.567 1398.99 259.603C1392.87 259.834 1386.5 260.202 1380.06 260.678C1380.02 260.685 1379.98 260.685 1379.94 260.685ZM1474.65 264.488C1474.55 264.488 1474.44 264.481 1474.34 264.459C1468.47 263.254 1462.19 262.244 1455.7 261.457C1454.82 261.349 1454.2 260.563 1454.31 259.697C1454.41 258.823 1455.2 258.21 1456.07 258.311C1462.66 259.105 1469.02 260.13 1474.97 261.356C1475.83 261.529 1476.38 262.367 1476.21 263.225C1476.05 263.976 1475.39 264.488 1474.65 264.488ZM1342.13 264.661C1341.35 264.661 1340.67 264.084 1340.56 263.29C1340.44 262.424 1341.05 261.623 1341.92 261.508C1348.32 260.656 1354.68 259.891 1360.84 259.242C1361.72 259.148 1362.5 259.776 1362.58 260.649C1362.68 261.522 1362.04 262.301 1361.18 262.388C1355.04 263.038 1348.71 263.802 1342.33 264.654C1342.27 264.661 1342.2 264.661 1342.13 264.661ZM1304.56 270.586C1303.81 270.586 1303.14 270.044 1303 269.279C1302.85 268.413 1303.42 267.591 1304.28 267.439C1310.61 266.299 1316.93 265.231 1323.07 264.257C1323.93 264.12 1324.74 264.712 1324.88 265.578C1325.02 266.444 1324.42 267.252 1323.56 267.389C1317.45 268.356 1311.15 269.424 1304.85 270.557C1304.75 270.571 1304.65 270.586 1304.56 270.586ZM1510.64 276.423C1510.4 276.423 1510.16 276.373 1509.93 276.257C1504.67 273.609 1498.82 271.242 1492.55 269.215C1491.72 268.94 1491.27 268.045 1491.53 267.216C1491.8 266.386 1492.69 265.924 1493.53 266.198C1499.95 268.276 1505.94 270.708 1511.36 273.421C1512.13 273.818 1512.45 274.771 1512.05 275.55C1511.78 276.106 1511.22 276.423 1510.64 276.423ZM1267.27 278.047C1266.54 278.047 1265.89 277.542 1265.72 276.799C1265.53 275.947 1266.08 275.096 1266.93 274.915C1273.2 273.537 1279.47 272.224 1285.57 271.004C1286.43 270.831 1287.26 271.387 1287.44 272.245C1287.61 273.104 1287.05 273.934 1286.19 274.107C1280.11 275.326 1273.85 276.64 1267.61 278.011C1267.5 278.032 1267.38 278.047 1267.27 278.047ZM1230.26 286.785C1229.55 286.785 1228.91 286.309 1228.73 285.588C1228.51 284.743 1229.02 283.885 1229.87 283.668C1236.07 282.102 1242.29 280.58 1248.37 279.144C1249.23 278.942 1250.07 279.468 1250.27 280.32C1250.48 281.171 1249.95 282.023 1249.1 282.225C1243.04 283.661 1236.83 285.176 1230.65 286.742C1230.52 286.771 1230.39 286.785 1230.26 286.785ZM1193.52 296.628C1192.83 296.628 1192.19 296.166 1192 295.473C1191.76 294.629 1192.25 293.756 1193.09 293.518C1199.23 291.779 1205.4 290.083 1211.45 288.467C1212.3 288.236 1213.16 288.741 1213.39 289.585C1213.62 290.429 1213.11 291.295 1212.27 291.526C1206.24 293.143 1200.08 294.839 1193.95 296.563C1193.81 296.606 1193.66 296.628 1193.52 296.628ZM1539.67 300.359C1539.17 300.359 1538.68 300.121 1538.38 299.688C1534.93 294.788 1530.65 290.271 1525.66 286.244C1524.97 285.696 1524.87 284.7 1525.42 284.015C1525.97 283.336 1526.96 283.228 1527.64 283.776C1532.87 287.99 1537.35 292.724 1540.97 297.862C1541.47 298.576 1541.3 299.565 1540.58 300.07C1540.31 300.265 1539.99 300.359 1539.67 300.359ZM1157.06 307.416C1156.38 307.416 1155.75 306.983 1155.54 306.305C1155.28 305.468 1155.75 304.58 1156.59 304.32C1162.66 302.444 1168.78 300.59 1174.8 298.807C1175.65 298.555 1176.53 299.038 1176.78 299.875C1177.02 300.712 1176.54 301.593 1175.7 301.845C1169.69 303.62 1163.58 305.475 1157.53 307.344C1157.37 307.394 1157.21 307.416 1157.06 307.416ZM1551.16 336.02C1550.31 336.02 1549.61 335.349 1549.58 334.49C1549.36 328.054 1548.34 321.906 1546.55 316.219C1546.29 315.382 1546.75 314.495 1547.59 314.228C1548.42 313.968 1549.31 314.43 1549.58 315.267C1551.45 321.227 1552.52 327.657 1552.75 334.389C1552.77 335.263 1552.09 335.991 1551.22 336.02C1551.19 336.02 1551.18 336.02 1551.16 336.02ZM1545.03 373.349C1544.87 373.349 1544.7 373.32 1544.53 373.269C1543.7 372.995 1543.26 372.1 1543.53 371.263C1545.6 365.007 1547.16 358.888 1548.17 353.086C1548.32 352.227 1549.13 351.65 1550 351.794C1550.86 351.946 1551.44 352.769 1551.29 353.627C1550.26 359.588 1548.65 365.851 1546.54 372.259C1546.32 372.93 1545.7 373.349 1545.03 373.349ZM1529.5 408C1529.24 408 1528.98 407.935 1528.74 407.798C1527.97 407.379 1527.69 406.412 1528.12 405.647C1531.29 399.918 1534.16 394.246 1536.63 388.791C1536.99 387.997 1537.93 387.636 1538.73 388.004C1539.53 388.365 1539.88 389.303 1539.52 390.097C1537.01 395.632 1534.11 401.376 1530.89 407.184C1530.6 407.704 1530.06 408 1529.5 408ZM1509.1 440.068C1508.78 440.068 1508.46 439.974 1508.18 439.772C1507.47 439.267 1507.3 438.278 1507.81 437.564C1511.58 432.274 1515.15 427 1518.42 421.883C1518.89 421.14 1519.87 420.931 1520.61 421.4C1521.34 421.869 1521.56 422.85 1521.09 423.586C1517.79 428.746 1514.19 434.071 1510.39 439.404C1510.09 439.837 1509.59 440.068 1509.1 440.068ZM1485.79 470.108C1485.43 470.108 1485.07 469.985 1484.77 469.74C1484.1 469.177 1484.01 468.174 1484.58 467.503C1488.72 462.553 1492.72 457.588 1496.48 452.753C1497.02 452.061 1498.01 451.938 1498.71 452.472C1499.4 453.013 1499.52 454.009 1498.99 454.702C1495.2 459.565 1491.17 464.559 1487.01 469.538C1486.69 469.913 1486.24 470.108 1485.79 470.108ZM1467.45 491.063C1467.07 491.063 1466.69 490.926 1466.39 490.652C1465.74 490.06 1465.69 489.057 1466.28 488.415C1468.28 486.221 1470.25 484.035 1472.19 481.863C1472.76 481.206 1473.77 481.148 1474.42 481.733C1475.07 482.317 1475.13 483.313 1474.55 483.97C1472.61 486.156 1470.63 488.35 1468.62 490.551C1468.31 490.89 1467.88 491.063 1467.45 491.063Z" fill="#2CB67D"/>
<path d="M411.996 711.837C411.551 711.837 411.111 711.649 410.797 711.288C410.225 710.624 410.296 709.629 410.958 709.051C415.675 704.967 420.548 700.803 425.442 696.69C426.113 696.128 427.109 696.214 427.674 696.885C428.237 697.556 428.15 698.552 427.481 699.122C422.599 703.221 417.739 707.37 413.033 711.447C412.733 711.707 412.363 711.837 411.996 711.837ZM383.659 737.201C383.233 737.201 382.808 737.035 382.496 736.696C381.902 736.054 381.939 735.051 382.581 734.459C387.153 730.223 391.892 725.908 396.664 721.636C397.317 721.052 398.32 721.109 398.902 721.759C399.486 722.415 399.431 723.411 398.778 723.996C394.019 728.253 389.294 732.554 384.735 736.783C384.431 737.064 384.045 737.201 383.659 737.201ZM356.26 763.583C355.856 763.583 355.451 763.424 355.141 763.121C354.521 762.5 354.52 761.497 355.138 760.877C359.525 756.475 364.099 751.987 368.731 747.527C369.362 746.928 370.366 746.943 370.972 747.57C371.578 748.205 371.559 749.208 370.928 749.815C366.312 754.252 361.755 758.734 357.382 763.114C357.072 763.424 356.666 763.583 356.26 763.583ZM330.045 791.133C329.666 791.133 329.285 790.996 328.982 790.722C328.333 790.138 328.282 789.135 328.87 788.485C333.028 783.889 337.392 779.191 341.838 774.522C342.443 773.887 343.445 773.865 344.078 774.464C344.713 775.071 344.736 776.074 344.132 776.709C339.706 781.356 335.361 786.032 331.221 790.614C330.908 790.96 330.477 791.133 330.045 791.133ZM305.397 820.091C305.051 820.091 304.703 819.976 304.411 819.745C303.726 819.204 303.612 818.208 304.157 817.522C307.996 812.695 312.077 807.745 316.287 802.809C316.854 802.138 317.855 802.058 318.522 802.629C319.187 803.199 319.267 804.194 318.7 804.865C314.512 809.772 310.454 814.701 306.638 819.492C306.325 819.889 305.863 820.091 305.397 820.091ZM282.966 850.788C282.666 850.788 282.361 850.701 282.093 850.528C281.363 850.045 281.163 849.063 281.646 848.327C285.031 843.218 288.706 837.951 292.57 832.676C293.088 831.969 294.08 831.817 294.784 832.337C295.491 832.849 295.644 833.845 295.126 834.552C291.292 839.784 287.646 845.008 284.289 850.081C283.984 850.543 283.48 850.788 282.966 850.788ZM263.971 883.7C263.74 883.7 263.503 883.65 263.28 883.541C262.493 883.159 262.165 882.214 262.546 881.427C265.204 875.95 268.235 870.271 271.556 864.556C271.997 863.798 272.967 863.539 273.722 863.979C274.479 864.419 274.736 865.386 274.297 866.144C271.016 871.794 268.021 877.401 265.398 882.805C265.124 883.376 264.559 883.7 263.971 883.7ZM251.03 919.362C250.915 919.362 250.798 919.347 250.681 919.318C249.826 919.131 249.29 918.279 249.482 917.428C250.808 911.525 252.662 905.341 254.995 899.034C255.298 898.212 256.213 897.793 257.03 898.096C257.851 898.399 258.271 899.308 257.968 900.131C255.684 906.308 253.87 912.362 252.574 918.121C252.408 918.857 251.755 919.362 251.03 919.362ZM691.479 956.474C690.821 956.474 690.205 956.062 689.979 955.406C689.697 954.576 690.138 953.674 690.966 953.392C696.913 951.357 702.895 949.272 708.911 947.143C709.735 946.855 710.641 947.288 710.933 948.11C711.225 948.94 710.792 949.842 709.967 950.131C703.942 952.267 697.95 954.352 691.992 956.387C691.822 956.445 691.649 956.474 691.479 956.474ZM250.132 957.051C249.406 957.051 248.751 956.546 248.588 955.81C247.447 950.679 246.869 945.209 246.869 939.559C246.869 938.556 246.887 937.539 246.923 936.521C246.955 935.648 247.67 934.955 248.563 934.992C249.438 935.02 250.122 935.756 250.091 936.63C250.056 937.618 250.038 938.592 250.038 939.559C250.038 944.978 250.59 950.217 251.681 955.124C251.871 955.976 251.332 956.82 250.477 957.015C250.363 957.036 250.246 957.051 250.132 957.051ZM655.364 968.402C654.692 968.402 654.069 967.969 653.854 967.298C653.588 966.461 654.05 965.573 654.884 965.306C660.867 963.401 666.893 961.453 672.956 959.447C673.786 959.172 674.682 959.627 674.958 960.457C675.232 961.287 674.781 962.181 673.95 962.456C667.875 964.462 661.839 966.417 655.844 968.329C655.685 968.38 655.523 968.402 655.364 968.402ZM618.988 979.507C618.302 979.507 617.67 979.06 617.468 978.367C617.223 977.523 617.705 976.65 618.545 976.397C624.55 974.643 630.674 972.818 636.747 970.963C637.584 970.704 638.469 971.18 638.726 972.017C638.981 972.854 638.51 973.734 637.673 973.994C631.588 975.849 625.452 977.681 619.434 979.442C619.286 979.485 619.136 979.507 618.988 979.507ZM268.75 989.523C268.36 989.523 267.97 989.379 267.664 989.097C262.816 984.537 258.751 979.428 255.583 973.922C255.146 973.164 255.407 972.197 256.165 971.764C256.923 971.324 257.893 971.584 258.329 972.342C261.343 977.58 265.214 982.437 269.836 986.788C270.473 987.387 270.504 988.39 269.904 989.025C269.593 989.357 269.171 989.523 268.75 989.523ZM582.346 989.696C581.644 989.696 581.003 989.22 580.816 988.513C580.592 987.668 581.097 986.802 581.944 986.579C587.995 984.984 594.163 983.31 600.277 981.607C601.124 981.376 601.994 981.867 602.229 982.711C602.463 983.555 601.969 984.428 601.127 984.659C594.999 986.369 588.817 988.044 582.752 989.638C582.616 989.674 582.48 989.696 582.346 989.696ZM545.429 998.839C544.708 998.839 544.057 998.341 543.888 997.612C543.69 996.761 544.221 995.909 545.074 995.707C551.135 994.307 557.349 992.821 563.542 991.284C564.391 991.074 565.25 991.587 565.462 992.438C565.672 993.29 565.154 994.148 564.305 994.358C558.095 995.895 551.865 997.388 545.789 998.795C545.669 998.824 545.548 998.839 545.429 998.839ZM508.236 1006.78C507.493 1006.78 506.829 1006.25 506.683 1005.49C506.516 1004.63 507.076 1003.8 507.935 1003.64C514.012 1002.45 520.271 1001.18 526.538 999.835C527.391 999.654 528.236 1000.2 528.419 1001.05C528.602 1001.91 528.056 1002.76 527.2 1002.94C520.914 1004.28 514.636 1005.56 508.54 1006.75C508.439 1006.77 508.336 1006.78 508.236 1006.78ZM301.283 1008.69C301.101 1008.69 300.916 1008.66 300.735 1008.59C294.387 1006.25 288.506 1003.54 283.257 1000.52C282.498 1000.08 282.236 999.113 282.672 998.355C283.109 997.598 284.079 997.338 284.836 997.771C289.932 1000.7 295.65 1003.34 301.831 1005.61C302.653 1005.92 303.073 1006.83 302.77 1007.65C302.534 1008.29 301.927 1008.69 301.283 1008.69ZM470.765 1013.28C469.994 1013.28 469.318 1012.72 469.2 1011.93C469.07 1011.06 469.665 1010.25 470.53 1010.12C476.647 1009.2 482.95 1008.18 489.265 1007.08C490.134 1006.93 490.948 1007.51 491.098 1008.37C491.247 1009.23 490.67 1010.05 489.808 1010.2C483.471 1011.3 477.143 1012.33 471.003 1013.26C470.923 1013.27 470.843 1013.28 470.765 1013.28ZM338.176 1017.61C338.101 1017.61 338.026 1017.61 337.949 1017.6C331.364 1016.66 325.032 1015.46 319.128 1014.07C318.276 1013.87 317.749 1013.02 317.95 1012.17C318.151 1011.32 319.006 1010.78 319.857 1010.99C325.669 1012.36 331.908 1013.53 338.399 1014.46C339.266 1014.58 339.867 1015.39 339.742 1016.26C339.63 1017.04 338.952 1017.61 338.176 1017.61ZM433.03 1017.99C432.223 1017.99 431.533 1017.38 431.455 1016.56C431.37 1015.69 432.007 1014.92 432.878 1014.83C439.006 1014.24 445.348 1013.53 451.733 1012.73C452.596 1012.61 453.393 1013.23 453.502 1014.1C453.611 1014.97 452.996 1015.76 452.128 1015.87C445.713 1016.68 439.34 1017.39 433.185 1017.98C433.133 1017.99 433.081 1017.99 433.03 1017.99ZM395.084 1020.41C394.228 1020.41 393.523 1019.72 393.501 1018.86C393.478 1017.99 394.167 1017.26 395.042 1017.23C401.162 1017.07 407.531 1016.78 413.977 1016.37C414.865 1016.32 415.604 1016.97 415.66 1017.85C415.717 1018.72 415.053 1019.47 414.181 1019.53C407.697 1019.95 401.285 1020.24 395.127 1020.4C395.112 1020.41 395.098 1020.41 395.084 1020.41ZM376.072 1020.49C376.061 1020.49 376.052 1020.49 376.042 1020.49C369.479 1020.37 363.06 1020.08 356.96 1019.64C356.088 1019.57 355.432 1018.81 355.496 1017.94C355.56 1017.07 356.314 1016.41 357.192 1016.47C363.235 1016.91 369.596 1017.2 376.1 1017.33C376.975 1017.34 377.672 1018.06 377.655 1018.94C377.639 1019.8 376.933 1020.49 376.072 1020.49Z" fill="#7F5AF0"/>
<path d="M1165.36 1292.56C1164.5 1292.56 1163.8 1291.87 1163.78 1291.01L1163.59 1282.58C1163.58 1281.71 1164.27 1280.98 1165.15 1280.96C1166.02 1280.95 1166.75 1281.63 1166.77 1282.51L1166.95 1290.94C1166.96 1291.82 1166.27 1292.54 1165.4 1292.56C1165.38 1292.56 1165.38 1292.56 1165.36 1292.56Z" fill="#FFFFFE"/>
<path d="M1166 1322.05C1165.14 1322.05 1164.43 1321.36 1164.41 1320.5L1164.23 1312.07C1164.22 1311.2 1164.91 1310.48 1165.78 1310.45C1166.64 1310.45 1167.38 1311.13 1167.4 1312.01L1167.59 1320.43C1167.6 1321.31 1166.91 1322.03 1166.03 1322.05C1166.02 1322.05 1166.01 1322.05 1166 1322.05Z" fill="#FFFFFE"/>
<path d="M1146.9 1303.24C1146.04 1303.24 1145.32 1302.54 1145.32 1301.67C1145.32 1300.79 1146.02 1300.08 1146.89 1300.07L1155.19 1300.01C1156.09 1300.04 1156.79 1300.7 1156.79 1301.58C1156.8 1302.45 1156.1 1303.17 1155.22 1303.17L1146.92 1303.24C1146.91 1303.24 1146.91 1303.24 1146.9 1303.24Z" fill="#FFFFFE"/>
<path d="M1175.97 1303.01C1175.1 1303.01 1174.39 1302.31 1174.39 1301.43C1174.38 1300.56 1175.08 1299.85 1175.96 1299.84L1184.26 1299.77C1184.27 1299.77 1184.27 1299.77 1184.28 1299.77C1185.14 1299.77 1185.86 1300.47 1185.86 1301.35C1185.86 1302.22 1185.16 1302.94 1184.29 1302.94L1175.98 1303.01C1175.98 1303.01 1175.98 1303.01 1175.97 1303.01Z" fill="#FFFFFE"/>
<path d="M803.977 370.26C798.255 372.829 795.65 379.677 798.176 385.529C799.403 388.387 801.654 390.573 804.504 391.677C807.297 392.767 810.342 392.688 813.07 391.454C818.799 388.885 821.397 382.037 818.878 376.184C817.645 373.327 815.393 371.141 812.543 370.036C809.75 368.947 806.712 369.026 803.977 370.26ZM808.531 395.61C806.784 395.61 805.038 395.285 803.357 394.636C799.706 393.214 796.834 390.429 795.261 386.785C792.057 379.352 795.383 370.643 802.679 367.367C806.193 365.786 810.104 365.685 813.69 367.078C817.341 368.499 820.213 371.285 821.787 374.929C824.99 382.361 821.664 391.071 814.368 394.347C812.5 395.191 810.515 395.61 808.531 395.61Z" fill="#FFFFFE"/>
</svg>
