<svg width="64" height="64" viewBox="0 0 64 64" fill="none" xmlns="http://www.w3.org/2000/svg">
<g clip-path="url(#clip0_250_2126)">
<path d="M52.6095 45.6897H11.604C10.8344 45.6897 10.1517 44.9425 10.1517 44.1V40.1734H16.2167C17.5848 40.1734 17.5848 37.8365 16.2167 37.8365H14.3374V14.8304H18.6101V34.7493C18.6101 35.4043 19.1214 35.9639 19.7197 35.9639H44.2382C44.7495 35.9639 45.2635 35.4966 45.2635 34.9369C45.3478 33.8146 45.2635 32.597 45.2635 31.3824C45.2635 25.866 45.2635 20.3497 45.2635 14.9256H49.5335V37.9287H20.7451C19.3771 37.9287 19.3771 40.2657 20.7451 40.2657H54.0618V44.1923C54.0618 44.9425 53.4635 45.6897 52.6095 45.6897ZM38.3445 56.9099H24.8464L27.2371 48.0267H35.9511L38.3445 56.9099ZM11.604 9.87671H18.6944V12.4934H13.3991C12.8007 12.4934 12.2867 13.0531 12.2867 13.7081V37.9287H10.1517V11.5587C10.1517 10.6239 10.75 9.87671 11.604 9.87671ZM20.7451 5.47971H43.1285V33.5347H20.7451V8.75438V5.47971ZM52.6095 9.87671C53.3792 9.87671 54.0618 10.6239 54.0618 11.4664V37.8365H51.7555V13.7081C51.7555 13.0531 51.2442 12.4934 50.6458 12.4934H45.3478C45.3478 11.3711 45.3478 10.5287 45.3478 9.87671H52.6095ZM52.6095 7.53678H45.3478V4.26511C45.3478 3.61017 44.8365 3.0505 44.2382 3.0505H19.7197C19.1214 3.0505 18.6101 3.61017 18.6101 4.26511V7.53678H11.5197C9.55337 7.53678 7.92969 9.31404 7.92969 11.4664V44.0077C7.92969 46.1571 9.55337 47.9344 11.5197 47.9344H24.9307L22.6244 56.9099H18.2674C16.9021 56.9099 16.9021 59.2499 18.2674 59.2499H23.3941H39.7968H44.9208C46.2888 59.2499 46.2888 56.9099 44.9208 56.9099H40.5638L38.1731 48.0267H52.6095C54.5759 48.0267 56.1995 46.2494 56.1995 44.1V11.5587C56.1995 9.31406 54.5759 7.53678 52.6095 7.53678Z" fill="#7F5AF0"/>
<path d="M15.6049 62.3806C15.6049 61.5073 14.9232 60.7611 14.1254 60.7611H1.36803C-0.456009 60.7611 -0.456009 63.877 1.36803 63.877H14.2378C14.9232 64.0001 15.6049 63.2538 15.6049 62.3806Z" fill="#7F5AF0"/>
<path d="M1.36803 59.2645H7.06134C8.88538 59.2645 8.88538 56.1486 7.06134 56.1486H1.36803C-0.456009 56.1486 -0.456009 59.2645 1.36803 59.2645Z" fill="#7F5AF0"/>
<path d="M62.5328 60.8841H49.7755C47.9551 60.8841 47.9551 64 49.7755 64H62.6489C64.4693 64 64.4693 60.8841 62.5328 60.8841Z" fill="#7F5AF0"/>
<path d="M62.5331 56.1486H58.2069C56.3829 56.1486 56.3829 59.2645 58.2069 59.2645H62.5331C64.4695 59.2645 64.4695 56.1486 62.5331 56.1486Z" fill="#7F5AF0"/>
<path d="M21.9836 17.2454C22.8938 17.2454 22.8938 18.8688 21.9836 18.8688C21.0734 18.8688 21.0734 17.2454 21.9836 17.2454ZM27.6806 7.89371C28.5908 7.89371 28.5908 9.51713 27.6806 9.51713C26.7667 9.51713 26.7667 7.89371 27.6806 7.89371ZM41.9174 3.1583C42.8276 3.1583 42.8276 4.77781 41.9174 4.77781C41.0072 4.77781 41.0072 3.1583 41.9174 3.1583ZM36.2205 15.6259C35.3103 15.6259 35.3103 14.0024 36.2205 14.0024C37.1343 14.0024 37.1343 15.6259 36.2205 15.6259ZM21.9836 21.8577C24.4894 21.8577 26.1974 18.9919 25.2872 16.4991L27.6806 12.51C28.5908 12.51 29.3886 12.1329 30.0703 11.5097L32.9206 13.5063C32.0067 16.2491 34.1716 19.1149 36.7935 18.7418C39.5241 18.2417 40.7788 14.6296 38.9548 12.2599L42.0299 7.77063C45.6779 7.77063 46.929 2.15805 43.6255 0.415527C40.2095 -1.45401 36.9059 3.4084 39.4117 6.5243L36.3366 11.0136C35.8797 11.0136 35.4264 11.1366 34.9694 11.2636L31.325 8.64388C31.325 6.02414 28.9316 4.15462 26.6543 5.02786C24.2609 5.90111 23.3507 9.26708 25.1748 11.3867L23.3507 14.5026C21.3019 13.6293 18.9085 15.1258 18.5676 17.4954C18.1107 19.7381 19.8187 21.8577 21.9836 21.8577Z" fill="#7F5AF0"/>
<path d="M22.6651 24.9779C21.8709 24.9779 21.1855 25.7241 21.1855 26.5973V29.7132C21.1855 31.7098 24.0322 31.7098 24.0322 29.7132V26.5973C24.1482 25.7241 23.4629 24.9779 22.6651 24.9779Z" fill="#7F5AF0"/>
<path d="M29.8452 15.6261C29.0474 15.6261 28.3621 16.3723 28.3621 17.2455V23.4813C28.3621 25.4739 31.2087 25.4739 31.2087 23.4813V17.2455C31.2087 16.3723 30.6394 15.6261 29.8452 15.6261Z" fill="#7F5AF0"/>
<path d="M36.9061 21.8578C36.1083 21.8578 35.4265 22.608 35.4265 23.4812V31.3365C35.4265 33.3291 38.2732 33.3291 38.2732 31.3365V23.4812C38.3856 22.608 37.7039 21.8578 36.9061 21.8578Z" fill="#7F5AF0"/>
<path d="M42.5989 11.0137C41.8048 11.0137 41.1194 11.7599 41.1194 12.6331V26.7202C41.1194 28.7168 43.966 28.7168 43.966 26.7202V12.5101C44.0821 11.6369 43.3967 11.0137 42.5989 11.0137Z" fill="#7F5AF0"/>
<path d="M29.8453 26.4741C28.0213 26.4741 28.0213 29.59 29.8453 29.59C31.6657 29.59 31.6657 26.4741 29.8453 26.4741Z" fill="#7F5AF0"/>
<path d="M42.5994 29.59C40.779 29.59 40.779 32.7059 42.5994 32.7059C44.4235 32.7059 44.5395 29.59 42.5994 29.59Z" fill="#7F5AF0"/>
<path d="M31.3251 44.6772C29.3887 44.6772 29.3887 47.9162 31.3251 47.9162C33.2616 47.9162 33.2616 44.6772 31.3251 44.6772Z" fill="#7F5AF0"/>
<path d="M19.8186 0.0383434H22.6653V3.1582H19.8186V0.0383434Z" fill="#7F5AF0"/>
<path d="M24.1484 0.0383434H26.9951V3.1582H24.1484V0.0383434Z" fill="#7F5AF0"/>
</g>
<defs>
<clipPath id="clip0_250_2126">
<rect width="64" height="64" fill="white" transform="matrix(1 0 0 -1 0 64)"/>
</clipPath>
</defs>
</svg>
