<svg width="64" height="64" viewBox="0 0 64 64" fill="none" xmlns="http://www.w3.org/2000/svg">
<g clip-path="url(#clip0_250_2095)">
<path d="M22.3372 61.1024L25.5122 50.087H36.9674L40.1424 61.1024H22.3372ZM2.83387 45.2192V40.8116H10.8856C12.6998 40.8116 12.6998 37.914 10.8856 37.914H2.83387V13.3343H61.2314V38.029H17.0105C15.1963 38.029 15.1963 40.9266 17.0105 40.9266H61.2314V45.3343C61.2314 46.3768 60.3279 47.3043 59.3046 47.3043H38.0995H24.4926H4.76425C3.741 47.1893 2.83387 46.3768 2.83387 45.2192ZM4.76425 2.89765H59.1922C60.2118 2.89765 61.1189 3.82517 61.1189 4.86772V10.4329H2.83387V4.86772C2.83387 3.71016 3.741 2.89765 4.76425 2.89765ZM48.9851 61.1024H43.2012L40.0263 50.087H59.1922C61.8011 50.087 63.9528 47.8831 63.9528 45.2192V4.86772C63.9528 2.20383 61.8011 3.8147e-06 59.1922 3.8147e-06H4.76425C2.15534 3.8147e-06 0 2.20383 0 4.86772V11.5942C0 11.8242 0 11.943 0 12.173V45.2192C0 47.8831 2.15534 50.087 4.76425 50.087H22.5658L19.3908 61.1024H13.607C11.7927 61.1024 11.7927 64 13.607 64H20.4105H42.1816H48.9851C50.7994 64 50.7994 61.1024 48.9851 61.1024Z" fill="#7F5AF0"/>
<path d="M15.5337 58.2047C15.5337 57.3922 14.8552 56.6947 14.0605 56.6947H1.3607C-0.453566 56.6947 -0.453566 59.596 1.3607 59.596H14.173C14.9677 59.7111 15.5337 59.0136 15.5337 58.2047Z" fill="#7F5AF0"/>
<path d="M1.3607 55.3036H7.03208C8.84634 55.3036 8.84634 52.4059 7.03208 52.4059H1.3607C-0.453566 52.4059 -0.453566 55.3036 1.3607 55.3036Z" fill="#7F5AF0"/>
<path d="M62.6394 56.8134H49.9396C48.1253 56.8134 48.1253 59.7111 49.9396 59.7111H62.6394C64.4537 59.7111 64.4537 56.8134 62.6394 56.8134Z" fill="#7F5AF0"/>
<path d="M56.9679 52.4059C55.1536 52.4059 55.1536 55.3036 56.9679 55.3036H62.6393C64.4535 55.3036 64.4535 52.4059 62.6393 52.4059H56.9679Z" fill="#7F5AF0"/>
<path d="M56.7648 33.5473C56.7648 32.7384 56.0862 32.041 55.2916 32.041H8.57432C6.76006 32.041 6.76006 34.9423 8.57432 34.9423H55.2916C56.0862 34.9423 56.7648 34.3598 56.7648 33.5473Z" fill="#7F5AF0"/>
<path d="M14.173 30.7236H49.5547C51.369 30.7236 51.369 27.826 49.5547 27.826H14.173C12.3587 27.826 12.3587 30.7236 14.173 30.7236Z" fill="#7F5AF0"/>
<path d="M36.8551 8.92664H56.6959C58.5101 8.92664 58.5101 6.02899 56.6959 6.02899H36.8551C35.0408 6.02899 35.0408 8.92664 36.8551 8.92664Z" fill="#7F5AF0"/>
<path d="M19.7319 24.9286L20.9765 19.1296H21.0926L22.4533 24.9286H24.38L26.5354 16.232H24.9461L23.7015 21.6822L23.5854 22.0272L22.1122 16.232H20.2979L18.9372 22.0272L18.8248 21.5635L17.5765 16.232H15.5337L17.6891 24.9286H19.7319Z" fill="#7F5AF0"/>
<path d="M30.8426 24.9286L32.2033 19.1296L33.564 24.9286H35.6068L37.6461 16.232H36.0604L34.8122 21.6822L34.6997 22.0272L33.339 16.232H31.4086L30.0516 22.0272L29.9355 21.5635L28.8034 16.232H26.7605L28.9158 24.9286H30.8426Z" fill="#7F5AF0"/>
<path d="M42.0691 24.9286L43.3173 19.1296H43.4298L44.7905 24.9286H46.7172L48.8726 16.232H47.1708L45.9226 21.6822V22.0272L44.4494 16.232H42.6351L41.2744 22.0272H41.1619V21.5635L39.9138 16.232H37.8745L40.0262 24.9286H42.0691Z" fill="#7F5AF0"/>
<path d="M31.2959 45.3341C33.2263 45.3341 33.2263 42.3178 31.2959 42.3178C29.3691 42.3178 29.3691 45.3341 31.2959 45.3341Z" fill="#7F5AF0"/>
<path d="M5.67139 6.02899H8.50525V8.92664H5.67139V6.02899Z" fill="#7F5AF0"/>
<path d="M9.86597 6.02899H12.6999V8.92664H9.86597V6.02899Z" fill="#7F5AF0"/>
<path d="M14.1731 6.02899H17.0106V8.92664H14.1731V6.02899Z" fill="#7F5AF0"/>
</g>
<defs>
<clipPath id="clip0_250_2095">
<rect width="64" height="64" fill="white" transform="matrix(1 0 0 -1 0 64)"/>
</clipPath>
</defs>
</svg>
